<svg width="124" height="25" viewBox="0 0 124 25" fill="none" xmlns="../../../external.html?link=http://www.w3.org/2000/svg">
<g clip-path="url(#clip0)">
<path d="M7.48865 10.5052L12.3128 5.65038L17.1394 10.5078L19.9464 7.68278L12.3128 0L4.68164 7.68022L7.48865 10.5052Z" fill="#F3BA2F"/>
<path d="M5.50715 12.4996L2.7002 9.67462L-0.106902 12.4997L2.70006 15.3246L5.50715 12.4996Z" fill="#F3BA2F"/>
<path d="M7.48886 14.4948L12.313 19.3496L17.1395 14.4924L19.948 17.3158L19.9467 17.3174L12.313 25L4.68166 17.32L4.67773 17.316L7.48886 14.4948Z" fill="#F3BA2F"/>
<path d="M21.9273 15.326L24.7344 12.5009L21.9274 9.67594L19.1203 12.501L21.9273 15.326Z" fill="#F3BA2F"/>
<path d="M15.1609 12.4985H15.1621L12.3136 9.63184L10.2086 11.7503H10.2084L9.96672 11.9938L9.46779 12.4959L9.46387 12.4999L9.46779 12.504L12.3136 15.3681L15.1621 12.5015L15.1634 12.4999L15.1609 12.4985Z" fill="#F3BA2F"/>
<path d="M29.1094 6.05774H35.2145C36.7297 6.05774 37.8755 6.4491 38.6521 7.23181C39.253 7.838 39.5534 8.58931 39.5534 9.48556V9.52347C39.5534 9.90219 39.5069 10.2369 39.4133 10.5271C39.3199 10.8178 39.1951 11.0794 39.0392 11.313C38.8836 11.5468 38.7027 11.752 38.4971 11.9285C38.2913 12.1054 38.0701 12.257 37.8333 12.383C38.595 12.6737 39.1946 13.068 39.6317 13.5668C40.0686 14.0657 40.2874 14.757 40.2874 15.6406V15.6783C40.2874 16.2845 40.1716 16.8147 39.9399 17.2694C39.7082 17.7238 39.3762 18.1027 38.944 18.4058C38.5118 18.7089 37.9921 18.936 37.3846 19.0876C36.7772 19.2391 36.104 19.3147 35.3654 19.3147H29.1094V6.05774ZM34.6041 11.4173C35.2441 11.4173 35.7523 11.3071 36.1284 11.0859C36.5047 10.865 36.6928 10.5082 36.6928 10.0159V9.97801C36.6928 9.53631 36.5296 9.19866 36.2035 8.96487C35.8772 8.73128 35.4068 8.61439 34.7923 8.61439H31.9319V11.4173H34.6041V11.4173ZM35.3758 16.7582C36.0156 16.7582 36.517 16.6417 36.8812 16.4079C37.2449 16.1744 37.427 15.8112 37.427 15.3188V15.2811C37.427 14.8392 37.2575 14.4889 36.9188 14.2298C36.58 13.9713 36.0344 13.8418 35.2816 13.8418H31.9319V16.7584H35.3758V16.7582Z" fill="#F3BA2F"/>
<path d="M43.9238 6.05774H46.8221V19.3151H43.9238V6.05774Z" fill="#F3BA2F"/>
<path d="M51.2119 6.05774H53.8837L60.0563 14.2205V6.05774H62.9167V19.3151H60.4517L54.0721 10.8873V19.3151H51.2119V6.05774Z" fill="#F3BA2F"/>
<path d="M71.6899 5.96317H74.362L80.0078 19.3151H76.9779L75.7734 16.3418H70.2032L68.9989 19.3151H66.0439L71.6899 5.96317ZM74.7385 13.7658L72.9882 9.46681L71.2385 13.7658H74.7385Z" fill="#F3BA2F"/>
<path d="M83.1367 6.05774H85.8091L91.9813 14.2205V6.05774H94.8417V19.3151H92.3767L85.9971 10.8873V19.3151H83.1367V6.05774V6.05774Z" fill="#F3BA2F"/>
<path d="M105.272 19.5422C104.305 19.5422 103.408 19.3652 102.58 19.012C101.752 18.6587 101.037 18.1756 100.435 17.5631C99.8327 16.9508 99.362 16.2279 99.0238 15.3946C98.6849 14.5612 98.5156 13.671 98.5156 12.724V12.6863C98.5156 11.7393 98.6849 10.8525 99.0238 10.0254C99.3622 9.19847 99.8327 8.47243 100.435 7.84748C101.037 7.22253 101.759 6.72988 102.599 6.37012C103.439 6.01036 104.368 5.83047 105.384 5.83047C105.999 5.83047 106.56 5.88122 107.068 5.98192C107.576 6.08322 108.037 6.22183 108.452 6.39855C108.866 6.57547 109.248 6.79011 109.6 7.04245C109.95 7.2952 110.277 7.57282 110.578 7.87591L108.734 10.0159C108.219 9.54895 107.696 9.18247 107.162 8.91749C106.629 8.6525 106.03 8.51981 105.365 8.51981C104.813 8.51981 104.302 8.62723 103.832 8.84186C103.361 9.0565 102.957 9.35307 102.618 9.73179C102.279 10.1105 102.016 10.5495 101.827 11.048C101.639 11.547 101.546 12.0803 101.546 12.6484V12.6861C101.546 13.2542 101.639 13.7911 101.827 14.2958C102.016 14.8011 102.276 15.2428 102.609 15.6215C102.941 16.0002 103.342 16.3003 103.813 16.5213C104.283 16.7424 104.801 16.8526 105.365 16.8526C106.118 16.8526 106.754 16.7138 107.275 16.436C107.796 16.1586 108.314 15.7796 108.828 15.2996L110.672 17.1747C110.333 17.5409 109.981 17.8693 109.618 18.1594C109.254 18.45 108.856 18.6992 108.423 18.9077C107.99 19.1159 107.516 19.274 107.003 19.381C106.488 19.4883 105.911 19.5422 105.272 19.5422Z" fill="#F3BA2F"/>
<path d="M114.083 6.05774H124V8.6525H116.944V11.3418H123.154V13.9364H116.944V16.7205H124.095V19.3151H114.083V6.05774Z" fill="#F3BA2F"/>
</g>
<defs>
<clipPath id="clip0">
<rect width="124" height="25" fill="white"/>
</clipPath>
</defs>
</svg>
