<svg width="115" height="21" viewBox="0 0 115 21" fill="none" xmlns="../../../external.html?link=http://www.w3.org/2000/svg">
<g clip-path="url(#clip0)">
<path d="M23.21 6.08362C19.0324 6.08362 15.7681 9.17117 15.7681 13.3045C15.7681 17.4379 18.9499 20.499 23.21 20.499C27.4702 20.499 30.7073 17.385 30.7073 13.2781C30.7073 9.1976 27.5255 6.08362 23.21 6.08362ZM23.2382 17.5202C20.8592 17.5202 19.1159 15.7213 19.1159 13.3055C19.1159 10.8623 20.831 9.06446 23.21 9.06446C25.6173 9.06446 27.3595 10.8898 27.3595 13.3055C27.3595 15.7213 25.6173 17.5202 23.2382 17.5202ZM31.6197 9.22504H33.6949V20.2317H37.0145V6.35192H31.6197V9.22504ZM7.41376 9.06344C9.15707 9.06344 10.5402 10.1102 11.0653 11.6672H14.5791C13.9423 8.33881 11.1206 6.08362 7.44195 6.08362C3.26427 6.08362 0 9.17117 0 13.3055C0 17.4399 3.1818 20.5 7.44195 20.5C11.0382 20.5 13.9152 18.2448 14.5519 14.8889H11.0653C10.5674 16.4459 9.18422 17.5202 7.44091 17.5202C5.03368 17.5202 3.34674 15.7213 3.34674 13.3055C3.34778 10.8623 5.00758 9.06344 7.41376 9.06344ZM94.6941 11.963L92.2597 11.6144C91.0979 11.4538 90.268 11.0778 90.268 10.1916C90.268 9.22504 91.3474 8.74229 92.813 8.74229C94.4175 8.74229 95.4415 9.41305 95.6628 10.5137H98.8718C98.5116 7.72191 96.2986 6.08463 92.8965 6.08463C89.3827 6.08463 87.059 7.82964 87.059 10.2993C87.059 12.6612 88.581 14.0312 91.6511 14.4601L94.0855 14.8087C95.2755 14.9692 95.9395 15.4266 95.9395 16.2854C95.9395 17.386 94.7776 17.8423 93.1731 17.8423C91.2085 17.8423 90.102 17.0639 89.936 15.8829H86.6717C86.9766 18.5944 89.1614 20.5 93.1449 20.5C96.7694 20.5 99.1755 18.8891 99.1755 16.1238C99.1755 13.6541 97.4333 12.3654 94.6941 11.963ZM35.3547 0.634153C34.1376 0.634153 33.2241 1.49294 33.2241 2.67389C33.2241 3.85485 34.1365 4.71363 35.3547 4.71363C36.5719 4.71363 37.4853 3.85485 37.4853 2.67389C37.4853 1.49294 36.5719 0.634153 35.3547 0.634153ZM84.0714 11.1042C84.0714 8.09795 82.1903 6.08463 78.2068 6.08463C74.4446 6.08463 72.3421 7.93737 71.9267 10.783H75.2191C75.3851 9.68238 76.2703 8.76973 78.1514 8.76973C79.8394 8.76973 80.6693 9.49436 80.6693 10.3806C80.6693 11.5351 79.1473 11.8298 77.2662 12.0179C74.7212 12.2862 71.5676 13.145 71.5676 16.3667C71.5676 18.8637 73.4769 20.4736 76.5198 20.4736C78.8989 20.4736 80.3927 19.5071 81.1401 17.9765C81.2508 19.3455 82.302 20.2317 83.7687 20.2317H85.7051V17.3596H84.0724V11.1042H84.0714ZM80.8071 14.5942C80.8071 16.4469 79.1473 17.8159 77.1274 17.8159C75.882 17.8159 74.8308 17.3057 74.8308 16.2325C74.8308 14.8635 76.5188 14.4875 78.0679 14.3269C79.5617 14.1928 80.3916 13.8706 80.8071 13.2527V14.5942ZM63.1851 6.08362C61.3311 6.08362 59.782 6.83569 58.6754 8.09693V0.5H55.3558V20.2317H58.6201V18.4064C59.7266 19.7215 61.304 20.5 63.1851 20.5C67.1686 20.5 70.1844 17.4399 70.1844 13.3055C70.1844 9.17117 67.1133 6.08362 63.1851 6.08362ZM62.6871 17.5202C60.3081 17.5202 58.5648 15.7213 58.5648 13.3055C58.5648 10.8898 60.3352 9.06446 62.7143 9.06446C65.1215 9.06446 66.8084 10.8633 66.8084 13.3055C66.8084 15.7213 65.0662 17.5202 62.6871 17.5202ZM47.4159 6.08362C45.2582 6.08362 43.8469 6.9424 43.017 8.1508V6.35192H39.7245V20.2307H43.0441V12.6876C43.0441 10.5666 44.4273 9.06344 46.4743 9.06344C48.3836 9.06344 49.5726 10.3786 49.5726 12.2852V20.2317H52.8922V12.0443C52.8933 8.55326 51.0404 6.08362 47.4159 6.08362ZM115 12.8492C115 8.87644 112.012 6.08463 108.001 6.08463C103.741 6.08463 100.614 9.19861 100.614 13.3055C100.614 17.6279 103.962 20.5 108.056 20.5C111.514 20.5 114.225 18.5131 114.916 15.6949H111.458C110.96 16.9297 109.743 17.6279 108.11 17.6279C105.98 17.6279 104.375 16.3392 104.016 14.084H114.999V12.8492H115ZM104.21 11.775C104.736 9.84194 106.23 8.90287 107.945 8.90287C109.826 8.90287 111.265 9.94967 111.597 11.775H104.21Z" fill="#3878FF"/>
</g>
<defs>
<clipPath id="clip0">
<rect width="115" height="20" fill="white" transform="translate(0 0.5)"/>
</clipPath>
</defs>
</svg>
