<svg width="190" height="270" viewBox="0 0 190 270" fill="none" xmlns="../../../external.html?link=http://www.w3.org/2000/svg">
<g opacity="0.1">
<path d="M48.0898 -23.1308C48.0592 -23.2725 47.9915 -23.4034 47.8935 -23.5102C47.7955 -23.617 47.6708 -23.6957 47.5323 -23.7383C47.0291 -23.8385 46.5082 -23.8017 46.024 -23.6317C46.024 -23.6317 12.5757 -11.3333 10.5182 -10.2225C10.0415 -9.96501 9.96651 -9.76752 9.89817 -9.57085C9.56484 -8.61918 10.5998 -8.19918 10.5998 -8.19918L19.2565 -5.37835L23.389 5.85582C23.389 5.85582 23.8423 6.94498 24.479 6.94498C24.7507 6.94498 25.3657 6.65915 26.2448 5.77832C28.1107 3.91248 29.9015 2.36582 30.7957 1.61165C33.7723 3.66749 36.9757 5.93998 38.3582 7.12915C38.5896 7.35342 38.8638 7.52883 39.1645 7.64493C39.4651 7.76104 39.7861 7.81547 40.1082 7.80498C41.4207 7.75582 41.7865 6.31499 41.7865 6.31499C41.7865 6.31499 47.9073 -18.3192 48.1115 -21.6192C48.1315 -21.9425 48.159 -22.1483 48.1623 -22.3692C48.1733 -22.6252 48.1489 -22.8815 48.0898 -23.1308ZM20.7257 -6.05585C25.0507 -8.78501 39.6098 -17.9542 40.5373 -18.295C40.704 -18.3433 40.8198 -18.2883 40.7873 -18.1767C40.3757 -16.7308 24.934 -3.00002 24.8773 -2.95418C24.8416 -2.92077 24.8132 -2.88021 24.7941 -2.83513C24.775 -2.79005 24.7656 -2.74146 24.7665 -2.69251L24.1657 3.47832L20.7257 -6.05585Z" fill="white"/>
<path d="M199.272 160.895C199.248 160.782 199.194 160.677 199.115 160.592C199.037 160.506 198.937 160.443 198.826 160.409C198.424 160.329 198.007 160.359 197.62 160.495C197.62 160.495 170.861 170.333 169.215 171.222C168.834 171.428 168.774 171.586 168.719 171.743C168.452 172.505 169.28 172.841 169.28 172.841L176.206 175.097L179.512 184.085C179.512 184.085 179.874 184.956 180.384 184.956C180.601 184.956 181.093 184.727 181.796 184.023C183.289 182.53 184.722 181.293 185.437 180.689C187.818 182.334 190.381 184.152 191.487 185.103C191.672 185.283 191.891 185.423 192.132 185.516C192.372 185.609 192.629 185.652 192.887 185.644C193.937 185.605 194.23 184.452 194.23 184.452C194.23 184.452 199.126 164.745 199.29 162.105C199.306 161.846 199.328 161.681 199.33 161.505C199.339 161.3 199.319 161.095 199.272 160.895ZM177.381 174.555C180.841 172.372 192.488 165.037 193.23 164.764C193.364 164.725 193.456 164.769 193.43 164.859C193.101 166.015 180.748 177 180.702 177.037C180.674 177.063 180.651 177.096 180.636 177.132C180.62 177.168 180.613 177.207 180.614 177.246L180.133 182.183L177.381 174.555Z" fill="white"/>
<path d="M149.455 31.9215C149.436 31.8365 149.396 31.7579 149.337 31.6939C149.278 31.6298 149.203 31.5826 149.12 31.557C148.818 31.4969 148.506 31.519 148.215 31.621C148.215 31.621 128.146 39 126.912 39.6665C126.626 39.821 126.581 39.9395 126.54 40.0575C126.34 40.6285 126.961 40.8805 126.961 40.8805L132.155 42.573L134.634 49.3135C134.634 49.3135 134.906 49.967 135.288 49.967C135.451 49.967 135.82 49.7955 136.348 49.267C137.467 48.1475 138.542 47.2195 139.078 46.767C140.864 48.0005 142.786 49.364 143.616 50.0775C143.755 50.2121 143.919 50.3173 144.099 50.387C144.28 50.4566 144.472 50.4893 144.666 50.483C145.453 50.4535 145.673 49.589 145.673 49.589C145.673 49.589 149.345 34.8085 149.468 32.8285C149.48 32.6345 149.496 32.511 149.498 32.3785C149.505 32.2249 149.49 32.0711 149.455 31.9215ZM133.036 42.1665C135.631 40.529 144.367 35.0275 144.923 34.823C145.023 34.794 145.093 34.827 145.073 34.894C144.826 35.7615 135.561 44 135.527 44.0275C135.506 44.0475 135.489 44.0719 135.477 44.0989C135.466 44.126 135.46 44.1551 135.461 44.1845L135.1 47.887L133.036 42.1665Z" fill="white"/>
<path d="M100.909 100.843C100.873 100.673 100.791 100.516 100.674 100.388C100.556 100.26 100.407 100.165 100.24 100.114C99.6365 99.9938 99.0114 100.038 98.4304 100.242C98.4304 100.242 58.2924 115 55.8234 116.333C55.2514 116.642 55.1614 116.879 55.0794 117.115C54.6794 118.257 55.9214 118.761 55.9214 118.761L66.3094 122.146L71.2684 135.627C71.2684 135.627 71.8124 136.934 72.5764 136.934C72.9024 136.934 73.6404 136.591 74.6954 135.534C76.9344 133.295 79.0834 131.439 80.1564 130.534C83.7284 133.001 87.5724 135.728 89.2314 137.155C89.5091 137.424 89.8382 137.635 90.1989 137.774C90.5597 137.913 90.9448 137.979 91.3314 137.966C92.9064 137.907 93.3454 136.178 93.3454 136.178C93.3454 136.178 100.69 106.617 100.935 102.657C100.959 102.269 100.992 102.022 100.996 101.757C101.009 101.45 100.98 101.142 100.909 100.843ZM68.0724 121.333C73.2624 118.058 90.7334 107.055 91.8464 106.646C92.0464 106.588 92.1854 106.654 92.1464 106.788C91.6524 108.523 73.1224 125 73.0544 125.055C73.0114 125.095 72.9774 125.144 72.9545 125.198C72.9316 125.252 72.9203 125.31 72.9214 125.369L72.2004 132.774L68.0724 121.333Z" fill="white"/>
<path d="M62.5445 213.791C62.4956 213.564 62.3871 213.354 62.2304 213.184C62.0736 213.013 61.8741 212.887 61.6525 212.819C60.8473 212.658 60.0138 212.717 59.2392 212.989C59.2392 212.989 5.72186 232.667 2.42986 234.444C1.66719 234.856 1.54719 235.172 1.43786 235.487C0.904525 237.009 2.56053 237.681 2.56053 237.681L16.4112 242.195L23.0232 260.169C23.0232 260.169 23.7485 261.912 24.7672 261.912C25.2019 261.912 26.1859 261.455 27.5925 260.045C30.5779 257.06 33.4432 254.585 34.8739 253.379C39.6365 256.668 44.7619 260.304 46.9739 262.207C47.3442 262.565 47.7829 262.846 48.264 263.032C48.745 263.218 49.2585 263.305 49.7739 263.288C51.8739 263.209 52.4592 260.904 52.4592 260.904C52.4592 260.904 62.2525 221.489 62.5792 216.209C62.6112 215.692 62.6552 215.363 62.6605 215.009C62.678 214.6 62.639 214.19 62.5445 213.791ZM18.7619 241.111C25.6819 236.744 48.9765 222.073 50.4605 221.528C50.7272 221.451 50.9125 221.539 50.8605 221.717C50.2019 224.031 25.4952 246 25.4045 246.073C25.3473 246.127 25.3019 246.192 25.2713 246.264C25.2408 246.336 25.2257 246.414 25.2272 246.492L24.2659 256.365L18.7619 241.111Z" fill="white"/>
</g>
</svg>
