<svg width="184" height="257" viewBox="0 0 184 257" fill="none" xmlns="../../../external.html?link=http://www.w3.org/2000/svg">
<g opacity="0.1">
<path d="M32.0898 4.86915C32.0592 4.7275 31.9915 4.59656 31.8935 4.48979C31.7955 4.38302 31.6708 4.30427 31.5323 4.26165C31.0291 4.16149 30.5082 4.19833 30.024 4.36832C30.024 4.36832 -3.42433 16.6667 -5.48183 17.7775C-5.95849 18.035 -6.03349 18.2325 -6.10183 18.4292C-6.43516 19.3808 -5.40016 19.8008 -5.40016 19.8008L3.25651 22.6217L7.38901 33.8558C7.38901 33.8558 7.84234 34.945 8.47901 34.945C8.75067 34.945 9.36567 34.6592 10.2448 33.7783C12.1107 31.9125 13.9015 30.3658 14.7957 29.6117C17.7723 31.6675 20.9757 33.94 22.3582 35.1291C22.5896 35.3534 22.8638 35.5288 23.1645 35.6449C23.4651 35.761 23.7861 35.8155 24.1082 35.805C25.4207 35.7558 25.7865 34.315 25.7865 34.315C25.7865 34.315 31.9073 9.68082 32.1115 6.38082C32.1315 6.05749 32.159 5.85165 32.1623 5.63082C32.1733 5.37481 32.1489 5.11851 32.0898 4.86915ZM4.72567 21.9442C9.05067 19.215 23.6098 10.0458 24.5373 9.70499C24.704 9.65665 24.8198 9.71165 24.7873 9.82332C24.3757 11.2692 8.93401 25 8.87734 25.0458C8.84155 25.0792 8.81319 25.1198 8.7941 25.1649C8.775 25.2099 8.7656 25.2585 8.76651 25.3075L8.16567 31.4783L4.72567 21.9442Z" fill="white"/>
<path d="M183.272 188.895C183.248 188.782 183.194 188.677 183.115 188.592C183.037 188.506 182.937 188.443 182.826 188.409C182.424 188.329 182.007 188.359 181.62 188.495C181.62 188.495 154.861 198.333 153.215 199.222C152.834 199.428 152.774 199.586 152.719 199.743C152.452 200.505 153.28 200.841 153.28 200.841L160.206 203.097L163.512 212.085C163.512 212.085 163.874 212.956 164.384 212.956C164.601 212.956 165.093 212.727 165.796 212.023C167.289 210.53 168.722 209.293 169.437 208.689C171.818 210.334 174.381 212.152 175.487 213.103C175.672 213.283 175.891 213.423 176.132 213.516C176.372 213.609 176.629 213.652 176.887 213.644C177.937 213.605 178.23 212.452 178.23 212.452C178.23 212.452 183.126 192.745 183.29 190.105C183.306 189.846 183.328 189.681 183.33 189.505C183.339 189.3 183.319 189.095 183.272 188.895ZM161.381 202.555C164.841 200.372 176.488 193.037 177.23 192.764C177.364 192.725 177.456 192.769 177.43 192.859C177.101 194.015 164.748 205 164.702 205.037C164.674 205.063 164.651 205.096 164.636 205.132C164.62 205.168 164.613 205.207 164.614 205.246L164.133 210.183L161.381 202.555Z" fill="white"/>
<path d="M133.455 59.9215C133.436 59.8365 133.396 59.7579 133.337 59.6939C133.278 59.6298 133.203 59.5826 133.12 59.557C132.818 59.4969 132.506 59.519 132.215 59.621C132.215 59.621 112.146 67 110.912 67.6665C110.626 67.821 110.581 67.9395 110.54 68.0575C110.34 68.6285 110.961 68.8805 110.961 68.8805L116.155 70.573L118.634 77.3135C118.634 77.3135 118.906 77.967 119.288 77.967C119.451 77.967 119.82 77.7955 120.348 77.267C121.467 76.1475 122.542 75.2195 123.078 74.767C124.864 76.0005 126.786 77.364 127.616 78.0775C127.755 78.2121 127.919 78.3173 128.099 78.387C128.28 78.4566 128.472 78.4893 128.666 78.483C129.453 78.4535 129.673 77.589 129.673 77.589C129.673 77.589 133.345 62.8085 133.468 60.8285C133.48 60.6345 133.496 60.511 133.498 60.3785C133.505 60.2249 133.49 60.0711 133.455 59.9215ZM117.036 70.1665C119.631 68.529 128.367 63.0275 128.923 62.823C129.023 62.794 129.093 62.827 129.073 62.894C128.826 63.7615 119.561 72 119.527 72.0275C119.506 72.0475 119.489 72.0719 119.477 72.0989C119.466 72.126 119.46 72.1551 119.461 72.1845L119.1 75.887L117.036 70.1665Z" fill="white"/>
<path d="M84.9094 128.843C84.8727 128.673 84.7913 128.516 84.6737 128.388C84.5562 128.26 84.4066 128.165 84.2404 128.114C83.6365 127.994 83.0114 128.038 82.4304 128.242C82.4304 128.242 42.2924 143 39.8234 144.333C39.2514 144.642 39.1614 144.879 39.0794 145.115C38.6794 146.257 39.9214 146.761 39.9214 146.761L50.3094 150.146L55.2684 163.627C55.2684 163.627 55.8124 164.934 56.5764 164.934C56.9024 164.934 57.6404 164.591 58.6954 163.534C60.9344 161.295 63.0834 159.439 64.1564 158.534C67.7284 161.001 71.5724 163.728 73.2314 165.155C73.5091 165.424 73.8382 165.635 74.1989 165.774C74.5597 165.913 74.9448 165.979 75.3314 165.966C76.9064 165.907 77.3454 164.178 77.3454 164.178C77.3454 164.178 84.6904 134.617 84.9354 130.657C84.9594 130.269 84.9924 130.022 84.9964 129.757C85.0095 129.45 84.9802 129.142 84.9094 128.843ZM52.0724 149.333C57.2624 146.058 74.7334 135.055 75.8464 134.646C76.0464 134.588 76.1854 134.654 76.1464 134.788C75.6524 136.523 57.1224 153 57.0544 153.055C57.0114 153.095 56.9774 153.144 56.9545 153.198C56.9316 153.252 56.9203 153.31 56.9214 153.369L56.2004 160.774L52.0724 149.333Z" fill="white"/>
<path d="M46.5445 241.791C46.4956 241.564 46.3871 241.354 46.2304 241.184C46.0736 241.013 45.8741 240.887 45.6525 240.819C44.8473 240.658 44.0138 240.717 43.2392 240.989C43.2392 240.989 -10.2781 260.667 -13.5701 262.444C-14.3328 262.856 -14.4528 263.172 -14.5621 263.487C-15.0955 265.009 -13.4395 265.681 -13.4395 265.681L0.41119 270.195L7.02319 288.169C7.02319 288.169 7.74852 289.912 8.76719 289.912C9.20186 289.912 10.1859 289.455 11.5925 288.045C14.5779 285.06 17.4432 282.585 18.8739 281.379C23.6365 284.668 28.7619 288.304 30.9739 290.207C31.3442 290.565 31.7829 290.846 32.264 291.032C32.745 291.218 33.2585 291.305 33.7739 291.288C35.8739 291.209 36.4592 288.904 36.4592 288.904C36.4592 288.904 46.2525 249.489 46.5792 244.209C46.6112 243.692 46.6552 243.363 46.6605 243.009C46.678 242.6 46.639 242.19 46.5445 241.791ZM2.76186 269.111C9.68186 264.744 32.9765 250.073 34.4605 249.528C34.7272 249.451 34.9125 249.539 34.8605 249.717C34.2019 252.031 9.49519 274 9.40452 274.073C9.34727 274.127 9.30189 274.192 9.27134 274.264C9.24079 274.336 9.22575 274.414 9.22719 274.492L8.26586 284.365L2.76186 269.111Z" fill="white"/>
</g>
</svg>
