<svg width="45" height="55" viewBox="0 0 45 55" fill="none" xmlns="../../../external.html?link=http://www.w3.org/2000/svg">
<path fill-rule="evenodd" clip-rule="evenodd" d="M22.3578 51.0863L13.2404 47.2829C9.87988 45.8846 3.58857 40.7202 3.58857 31.1154V11.7473L12.3092 8.0185H12.2467L22.3578 3.92457L32.5939 8.0185H32.6377L41.4036 11.7473V31.1154C41.4036 36.3979 39.5758 40.1267 37.5245 42.6654C36.7212 43.6589 35.8071 44.5585 34.7999 45.347C33.8217 46.1279 32.7456 46.7792 31.5987 47.2845L22.3578 51.0863ZM21.0221 0.582627L10.8797 4.79774L2.19813 8.41314L0 9.34534V31.1154C0 36.0871 1.47167 40.6891 4.29941 44.4443C6.36474 47.1866 9.20498 49.4953 11.9155 50.6186L21.0283 54.422L22.3578 55L23.817 54.422L33.0173 50.6202C34.4541 49.9848 35.8021 49.167 37.0277 48.1871C38.2621 47.2214 39.3802 46.1172 40.36 44.8965C43.4393 41.076 45 36.4383 45 31.1154V9.34534L42.7722 8.41314L34.0562 4.79929L23.8857 0.604376L22.4266 0.0497187H22.3657V0L21.0221 0.582627ZM38.3634 14.3513L32.5674 11.9415V40.6534L34.2281 41.3448C36.2372 39.3918 38.3634 36.1353 38.3634 31.1154V14.3513ZM15.1807 29.3085C15.1807 33.3791 18.4615 34.8069 18.5021 34.8209L22.3578 36.4383L29.8099 39.4493V32.4174L22.3578 29.4064V25.5812L29.8099 28.6093V21.5774L22.3578 18.5664V14.7412L29.8099 17.7694V10.7436L22.3578 7.73263L15.1807 10.7436V29.3085ZM12.4217 29.3085V11.9415L6.62408 14.3513V31.1154C6.62408 40.5446 14.1465 43.8229 14.2246 43.8555L22.3578 47.2736L30.6489 43.8555C30.7316 43.8279 30.8124 43.7953 30.891 43.7576L22.3578 40.2463L17.6569 38.2436C17.4382 38.1582 12.4217 35.9551 12.4217 29.3085V29.3085Z" fill="#1B63FF"/>
</svg>
