<svg width="1920" height="280" viewBox="0 0 1920 280" fill="none" xmlns="../../../external.html?link=http://www.w3.org/2000/svg">
<path opacity="0.2" d="M517 207.278C276.5 207.278 6.78168e-06 31.1111 6.78168e-06 31.1111V280H1920V207.278C1920 207.278 1620.81 -4.80107e-05 1322.4 0C1024 4.80107e-05 757.5 207.278 517 207.278Z" fill="white"/>
<path opacity="0.4" d="M517 221.666C276.5 221.666 0 68.4442 0 68.4442V280H1920V221.666C1920 221.666 1620.81 37.3331 1322.4 37.3331C1024 37.3332 757.5 221.666 517 221.666Z" fill="white"/>
<path opacity="0.6" d="M517 237.611C276.5 237.611 0 105.778 0 105.778V280H1920V237.611C1920 237.611 1620.81 74.6666 1322.4 74.6667C1024 74.6667 757.5 237.611 517 237.611Z" fill="white"/>
<path d="M517 248.889C276.5 248.889 0 149.333 0 149.333V280H1920V257.056C1920 257.056 1620.81 118.222 1322.4 118.222C1024 118.222 757.5 248.889 517 248.889Z" fill="white"/>
</svg>
