<svg width="375" height="257" viewBox="0 0 375 257" fill="none" xmlns="../../../external.html?link=http://www.w3.org/2000/svg">
<path d="M-175 273.084C-154.861 283.074 -94.4445 300.632 -54.1667 284.822C-13.8889 269.595 26.3889 217.219 66.6667 207.229C106.944 196.851 147.222 227.888 187.5 217.51C227.778 207.52 268.056 155.145 308.333 124.399C348.611 93.0706 388.889 83.3714 429.167 103.74C469.444 124.108 529.861 192.002 550 217.51V321H529.861C509.722 321 469.444 321 429.167 321C388.889 321 348.611 321 308.333 321C268.056 321 227.778 321 187.5 321C147.222 321 106.944 321 66.6667 321C26.3889 321 -13.8889 321 -54.1667 321C-94.4445 321 -134.722 321 -154.861 321H-175V273.084Z" fill="white"/>
<path opacity="0.6" d="M-175 229.96L-154.861 240.326C-134.722 250.304 -106.515 271.617 -66.2374 255.826C-25.9597 240.617 14.3181 188.304 54.5959 178.326C94.8737 167.96 135.151 198.96 175.429 188.595C215.707 178.616 255.985 126.304 296.263 95.5946C336.54 64.304 376.818 54.6165 417.096 74.9602C457.374 95.304 509.722 147.616 529.861 173.095L550 198.96V326.808H529.861C509.722 326.808 457.374 326.808 417.096 326.808C376.818 326.808 336.54 326.808 296.263 326.808C255.985 326.808 215.707 326.808 175.429 326.808C135.151 326.808 94.8737 326.808 54.5959 326.808C14.3181 326.808 -25.9597 326.808 -66.2374 326.808C-106.515 326.808 -134.722 326.808 -154.861 326.808H-175V229.96Z" fill="white"/>
<path opacity="0.4" d="M-175 195.012C-175 195.012 -113.325 254.77 -73.0468 238.963C-32.7691 223.737 26.3889 148.075 66.6667 138.087C106.944 127.71 147.222 163.979 187.5 153.603C227.778 143.614 268.056 91.2475 308.333 60.5062C348.611 29.183 388.889 19.4854 429.167 39.8503C469.445 60.2152 529.861 153.2 550 178.705V291.96H529.861C509.722 291.96 469.445 291.96 429.167 291.96C388.889 291.96 348.611 291.96 308.333 291.96C268.056 291.96 227.778 291.96 187.5 291.96C147.222 291.96 106.944 291.96 66.6667 291.96C26.3889 291.96 -13.8889 291.96 -54.1666 291.96C-94.4444 291.96 -134.722 291.96 -154.861 291.96H-175V195.012Z" fill="white"/>
<path opacity="0.2" d="M-175.378 161.644C-175.378 161.644 -118.465 233.699 -78.1449 217.909C-37.8251 202.699 17.5359 124.416 57.8556 114.438C98.1754 104.073 138.495 135.073 178.815 124.707C219.135 114.729 259.454 62.4164 299.774 31.707C340.094 0.416404 380.414 -9.2711 420.733 11.0726C461.053 31.4164 529.84 119.105 550 144.583V294.138H521.533C501.373 294.138 461.053 294.138 420.733 294.138C380.414 294.138 340.094 294.138 299.774 294.138C259.454 294.138 219.135 294.138 178.815 294.138C138.495 294.138 98.1754 294.138 57.8556 294.138C17.5359 294.138 -22.7839 294.138 -63.1036 294.138C-103.423 294.138 -143.743 294.138 -163.903 294.138H-175.378V161.644Z" fill="white"/>
</svg>
