<svg width="16" height="32" viewBox="0 0 16 32" fill="none" xmlns="../../../external.html?link=http://www.w3.org/2000/svg">
<path opacity="0.3" d="M14.229 1.90909H15.229V0.90909H14.229V1.90909ZM8.4478 1.90909V0.90909H8.15785L7.91287 1.0642L8.4478 1.90909ZM1.24609 6.46875L0.711166 5.62386L0.246094 5.91831V6.46875H1.24609ZM1.24609 11.9233H0.246094V13.7304L1.77722 12.7706L1.24609 11.9233ZM7.90802 7.74716V6.74716H7.6205L7.37689 6.89987L7.90802 7.74716ZM8.07848 7.74716H9.07848V6.74716H8.07848V7.74716ZM8.07848 31H7.07848V32H8.07848V31ZM14.229 31V32H15.229V31H14.229ZM14.229 0.90909H8.4478V2.90909H14.229V0.90909ZM7.91287 1.0642L0.711166 5.62386L1.78102 7.31364L8.98273 2.75398L7.91287 1.0642ZM0.246094 6.46875V11.9233H2.24609V6.46875H0.246094ZM1.77722 12.7706L8.43916 8.59444L7.37689 6.89987L0.714966 11.076L1.77722 12.7706ZM7.90802 8.74716H8.07848V6.74716H7.90802V8.74716ZM7.07848 7.74716V31H9.07848V7.74716H7.07848ZM8.07848 32H14.229V30H8.07848V32ZM15.229 31V1.90909H13.229V31H15.229Z" fill="#8994A3"/>
</svg>
