<svg width="66" height="107" viewBox="0 0 66 107" fill="none" xmlns="../../../external.html?link=http://www.w3.org/2000/svg">
<path d="M16 76C16 76 10.8839 74.7076 10.089 73.9122C9.29412 73.1168 7.99974 68 7.99974 68C7.99974 68 6.70438 73.118 5.91074 73.9122C5.11709 74.7064 0 76 0 76C0 76 5.11311 77.2896 5.91074 78.0878C6.70837 78.886 7.99974 84 7.99974 84C7.99974 84 9.2981 78.8793 10.089 78.0878C10.8799 77.2964 16 76 16 76Z" fill="#FFCC00"/>
<path d="M64 24L39.9992 0L16 24L39.9992 48L64 24Z" fill="#FFCC00"/>
<path d="M57.9995 107L50 99L57.9995 91L66 99L57.9995 107Z" fill="#FFCC00"/>
</svg>
