<svg width="88" height="105" viewBox="0 0 88 105" fill="none" xmlns="../../../external.html?link=http://www.w3.org/2000/svg">
<path d="M40 85C40 85 27.2097 81.769 25.2225 79.7805C23.2353 77.7919 19.9994 65 19.9994 65C19.9994 65 16.761 77.795 14.7768 79.7805C12.7927 81.7659 0 85 0 85C0 85 12.7828 88.2241 14.7768 90.2196C16.7709 92.215 19.9994 105 19.9994 105C19.9994 105 23.2453 92.1982 25.2225 90.2196C27.1998 88.2409 40 85 40 85Z" fill="#FFCC00"/>
<path d="M75.9993 65L64 53L75.9993 41L88 53L75.9993 65Z" fill="#FFCC00"/>
<path d="M36.0402 1.28195C36.3207 0.322871 37.6793 0.322872 37.9598 1.28195L39.5616 6.75927C39.6574 7.08664 39.9134 7.34264 40.2407 7.43837L45.7181 9.0402C46.6771 9.32068 46.6771 10.6793 45.7181 10.9598L40.2407 12.5616C39.9134 12.6574 39.6574 12.9134 39.5616 13.2407L37.9598 18.7181C37.6793 19.6771 36.3207 19.6771 36.0402 18.7181L34.4384 13.2407C34.3426 12.9134 34.0866 12.6574 33.7593 12.5616L28.282 10.9598C27.3229 10.6793 27.3229 9.32068 28.282 9.0402L33.7593 7.43837C34.0866 7.34264 34.3426 7.08664 34.4384 6.75927L36.0402 1.28195Z" fill="#FFCC00"/>
</svg>
