<svg width="1024" height="1250" viewBox="0 0 1024 1250" fill="none" xmlns="../../../external.html?link=http://www.w3.org/2000/svg">
<path d="M-10.982 36.1205C-135.862 67.0932 -286.813 161.942 -390.575 303.243C-494.335 444.544 -550.908 632.314 -487.027 849.115C-423.144 1065.92 -285.453 1128.99 -94.1756 1152.62C97.1037 1176.24 341.968 1160.44 620.235 1219.48C1019.38 1304.17 1263.19 1195.77 1379.82 1032.33C1496.46 868.888 1485.92 650.39 1376.39 514.901C1266.86 379.396 1070.27 222.454 825.93 118.005C581.594 13.5551 289.519 -38.4004 -10.982 36.1205Z" stroke="#EBEFF5" stroke-miterlimit="10"/>
<path d="M1317.49 559.641C1203.78 447.11 1031.4 298.511 811.96 209.328C595.828 121.468 342.11 78.6555 85.1444 145.012C-24.8112 173.407 -153.812 256.972 -240.253 379.415C-326.694 502.314 -366.614 663.013 -306.265 847.191C-246.466 1029.72 -126.581 1084.11 39.0697 1104.73C207.119 1125.69 419.007 1114.87 657.354 1160.05C1012.35 1227.33 1228.41 1151.57 1339.64 1013.86C1450.89 876.172 1438.63 679.537 1317.49 559.641Z" stroke="#EBEFF5" stroke-miterlimit="10"/>
<path d="M1258.58 604.395C1142.76 514.494 992.597 374.532 797.989 300.648C610.123 229.313 394.701 195.823 181.249 253.885C86.1991 279.749 -20.8105 351.967 -89.9524 455.583C-159.071 560.081 -182.422 693.659 -125.527 845.28C-69.9103 993.487 32.2471 1039.25 172.294 1056.86C317.114 1075.16 496.269 1068.97 694.452 1100.63C1005.72 1150.35 1193.6 1107.41 1299.45 995.43C1405.31 883.454 1393.14 708.844 1258.58 604.395Z" stroke="#EBEFF5" stroke-miterlimit="10"/>
<path d="M1199.67 649.169C1083.87 580.95 953.895 450.491 784.021 392.005C624.52 337.094 447.354 313.223 277.376 362.794C197.231 386.176 111.866 446.883 60.3912 531.771C8.26633 617.736 1.647 724.226 55.2331 843.388C106.444 957.225 191.118 994.42 305.56 1009.02C427.15 1024.66 573.959 1022.54 731.611 1041.25C999.766 1073.07 1158.88 1063.27 1259.31 977.031C1359.74 890.788 1349.75 737.567 1199.67 649.169Z" stroke="#EBEFF5" stroke-miterlimit="10"/>
<path d="M1140.79 693.916C1026.73 645.864 915.356 526.246 770.07 483.336C639.099 444.656 500.128 430.924 373.523 471.678C308.301 492.676 244.827 541.904 210.733 607.95C175.869 675.516 185.353 754.673 236.014 841.47C282.371 920.889 349.989 949.562 438.826 961.138C537.186 974.118 652.135 975.065 768.75 981.825C994.711 994.937 1124.12 1019.09 1219.17 958.59C1314.2 898.064 1308.39 764.518 1140.79 693.916Z" stroke="#EBEFF5" stroke-miterlimit="10"/>
<path d="M1081.88 738.677C970.202 708.945 876.998 601.638 756.099 574.664C653.841 551.854 553.125 549.209 469.649 580.558C419.434 599.417 377.848 636.971 361.055 684.11C343.532 733.322 367.979 785.081 416.774 839.55C457.161 884.648 508.859 904.698 572.07 913.254C647.201 923.574 730.778 925.729 805.869 922.397C990.629 914.217 1089.33 974.908 1178.98 940.13C1268.63 905.368 1268.29 788.313 1081.88 738.677Z" stroke="#EBEFF5" stroke-miterlimit="10"/>
<path d="M511.398 760.293C511.032 698.573 606.895 651.892 742.13 666C838.805 676.09 912.919 770.204 1022.97 783.429C1227.76 808.035 1223.07 912.664 1138.82 921.709C1054.57 930.739 983.218 822.192 842.987 862.994C744.687 891.602 511.844 838.814 511.398 760.293Z" stroke="#EBEFF5" stroke-miterlimit="10"/>
</svg>
