<svg width="26" height="33" viewBox="0 0 26 33" fill="none" xmlns="../../../external.html?link=http://www.w3.org/2000/svg">
<path opacity="0.3" d="M24.1204 22.8324L23.1204 22.8285L23.1204 22.8352L24.1204 22.8324ZM17.5579 16.0852H16.5579V16.9669L17.4326 17.0774L17.5579 16.0852ZM17.5579 15.858L17.3817 14.8736L16.5579 15.0211V15.858H17.5579ZM23.0408 9.70739L22.0408 9.70429L22.0408 9.71173L23.0408 9.70739ZM2.47266 10.0341L1.47279 10.0171L1.45557 11.0341H2.47266V10.0341ZM8.36754 10.0341V11.0341H9.336L9.36703 10.0661L8.36754 10.0341ZM17.1175 10.0767L16.1175 10.0702L16.1176 10.0829L17.1175 10.0767ZM9.67436 13.9119V12.9119H8.67436V13.9119H9.67436ZM9.67436 18.429H8.67436V19.429H9.67436V18.429ZM17.7283 22.4205L16.7283 22.4144L16.7284 22.4266L17.7283 22.4205ZM8.08345 22.7756L9.08203 22.7223L9.03154 21.7756H8.08345V22.7756ZM1.89027 22.7756V21.7756H0.870529L0.890457 22.7951L1.89027 22.7756ZM12.9272 32.3977C19.7478 32.3977 25.1368 28.5882 25.1204 22.8295L23.1204 22.8352C23.1323 27.0197 19.1748 30.3977 12.9272 30.3977V32.3977ZM25.1204 22.8363C25.1283 20.8036 24.4816 18.9922 23.1729 17.6143C21.8708 16.2434 19.9936 15.3848 17.6831 15.0931L17.4326 17.0774C19.3978 17.3254 20.8088 18.0294 21.7227 18.9916C22.6299 19.9467 23.1266 21.2391 23.1204 22.8285L25.1204 22.8363ZM18.5579 16.0852V15.858H16.5579V16.0852H18.5579ZM17.7341 16.8423C21.3843 16.1888 24.0575 13.5339 24.0408 9.70304L22.0408 9.71173C22.0526 12.4149 20.2372 14.3624 17.3817 14.8736L17.7341 16.8423ZM24.0408 9.71048C24.0573 4.40998 19.4151 0.511363 13.0124 0.511363V2.51136C18.6552 2.51136 22.0528 5.82865 22.0408 9.70429L24.0408 9.71048ZM13.0124 0.511363C6.70197 0.511363 1.57034 4.26196 1.47279 10.0171L3.47252 10.051C3.54543 5.7494 7.39107 2.51136 13.0124 2.51136V0.511363ZM2.47266 11.0341H8.36754V9.03409H2.47266V11.0341ZM9.36703 10.0661C9.41428 8.5922 10.7812 7.38352 12.984 7.38352V5.38352C10.1585 5.38352 7.46286 7.04416 7.36806 10.0021L9.36703 10.0661ZM12.984 7.38352C14.0273 7.38352 14.8117 7.69771 15.3205 8.15418C15.8199 8.60218 16.1229 9.24639 16.1176 10.0702L18.1175 10.0832C18.1264 8.71952 17.6055 7.51714 16.656 6.66542C15.716 5.82218 14.4266 5.38352 12.984 5.38352V7.38352ZM16.1176 10.0829C16.1227 10.9148 15.7824 11.5873 15.1795 12.0735C14.5592 12.5736 13.6099 12.9119 12.3874 12.9119V14.9119C13.9632 14.9119 15.3861 14.4761 16.4349 13.6304C17.501 12.7707 18.1266 11.5256 18.1175 10.0705L16.1176 10.0829ZM12.3874 12.9119H9.67436V14.9119H12.3874V12.9119ZM8.67436 13.9119V18.429H10.6744V13.9119H8.67436ZM9.67436 19.429H12.3874V17.429H9.67436V19.429ZM12.3874 19.429C13.8793 19.429 14.9863 19.8028 15.6929 20.3412C16.3773 20.8627 16.7335 21.5682 16.7284 22.4144L18.7283 22.4265C18.7374 20.929 18.0708 19.6387 16.9051 18.7504C15.7616 17.879 14.191 17.429 12.3874 17.429V19.429ZM16.7284 22.4266C16.7335 23.2707 16.384 23.9629 15.7648 24.4653C15.13 24.9803 14.1661 25.3267 12.9414 25.3267V27.3267C14.5292 27.3267 15.9659 26.8776 17.0249 26.0184C18.0997 25.1465 18.7374 23.8856 18.7283 22.4143L16.7284 22.4266ZM12.9414 25.3267C10.4978 25.3267 9.15524 24.0949 9.08203 22.7223L7.08487 22.8288C7.23894 25.7176 9.95886 27.3267 12.9414 27.3267V25.3267ZM8.08345 21.7756H1.89027V23.7756H8.08345V21.7756ZM0.890457 22.7951C1.00443 28.6233 6.21321 32.3977 12.9272 32.3977V30.3977C6.8571 30.3977 2.97499 27.0983 2.89008 22.756L0.890457 22.7951Z" fill="#8994A3"/>
</svg>
