<svg width="66" height="110" viewBox="0 0 66 110" fill="none" xmlns="../../../external.html?link=http://www.w3.org/2000/svg">
<path d="M42 20C42 20 29.2097 16.769 27.2225 14.7805C25.2353 12.7919 21.9994 0 21.9994 0C21.9994 0 18.761 12.795 16.7768 14.7805C14.7927 16.7659 2 20 2 20C2 20 14.7828 23.2241 16.7768 25.2196C18.7709 27.215 21.9994 40 21.9994 40C21.9994 40 25.2453 27.1982 27.2225 25.2196C29.1998 23.2409 42 20 42 20Z" fill="#FFCC00"/>
<path d="M53.9993 83L42 71L53.9993 59L66 71L53.9993 83Z" fill="#FFCC00"/>
<path d="M9.0402 91.282C9.32068 90.3229 10.6793 90.3229 10.9598 91.282L12.5616 96.7593C12.6574 97.0866 12.9134 97.3426 13.2407 97.4384L18.7181 99.0402C19.6771 99.3207 19.6771 100.679 18.7181 100.96L13.2407 102.562C12.9134 102.657 12.6574 102.913 12.5616 103.241L10.9598 108.718C10.6793 109.677 9.32068 109.677 9.0402 108.718L7.43837 103.241C7.34264 102.913 7.08664 102.657 6.75927 102.562L1.28195 100.96C0.322871 100.679 0.322872 99.3207 1.28195 99.0402L6.75927 97.4384C7.08664 97.3426 7.34264 97.0866 7.43837 96.7593L9.0402 91.282Z" fill="#FFCC00"/>
</svg>
