<svg width="24" height="32" viewBox="0 0 24 32" fill="none" xmlns="../../../external.html?link=http://www.w3.org/2000/svg">
<path opacity="0.3" d="M1.7603 31H0.7603V32H1.7603V31ZM22.4989 31V32H23.4989V31H22.4989ZM22.4989 25.9716H23.4989V24.9716H22.4989V25.9716ZM10.283 25.9716H9.28302V26.9716H10.283V25.9716ZM10.283 25.7727L9.58311 25.0585L9.28302 25.3526V25.7727H10.283ZM14.5302 21.6108L13.8563 20.872L13.8431 20.884L13.8303 20.8966L14.5302 21.6108ZM1.47621 10.8722L0.476212 10.8746L0.478699 11.8722H1.47621V10.8722ZM7.31427 10.8722V11.8722H8.3194L8.31427 10.8671L7.31427 10.8722ZM12.1154 16.9801L12.7948 17.7139L12.8019 17.7073L12.8088 17.7006L12.1154 16.9801ZM1.7603 26.5682L1.08089 25.8344L0.7603 26.1313V26.5682H1.7603ZM1.7603 32H22.4989V30H1.7603V32ZM23.4989 31V25.9716H21.4989V31H23.4989ZM22.4989 24.9716H10.283V26.9716H22.4989V24.9716ZM11.283 25.9716V25.7727H9.28302V25.9716H11.283ZM10.9829 26.487L15.2301 22.325L13.8303 20.8966L9.58311 25.0585L10.9829 26.487ZM15.2041 22.3496C21.1919 16.888 23.1154 13.8985 23.1154 10.1193H21.1154C21.1154 12.9595 19.8287 15.4245 13.8563 20.872L15.2041 22.3496ZM23.1154 10.1193C23.1154 7.30536 21.9571 4.87234 19.9199 3.15904C17.8956 1.45655 15.0638 0.511363 11.7603 0.511363V2.51136C14.6926 2.51136 17.0383 3.34885 18.6326 4.68968C20.2141 6.0197 21.1154 7.89066 21.1154 10.1193H23.1154ZM11.7603 0.511363C8.51038 0.511363 5.68141 1.48417 3.65392 3.30673C1.6154 5.1392 0.46846 7.75952 0.476212 10.8746L2.47621 10.8697C2.46974 8.27457 3.41089 6.21449 4.99097 4.79412C6.58208 3.36383 8.90227 2.51136 11.7603 2.51136V0.511363ZM1.47621 11.8722H7.31427V9.87216H1.47621V11.8722ZM8.31427 10.8671C8.30826 9.69075 8.67331 8.8418 9.2233 8.28929C9.77411 7.73592 10.6063 7.38352 11.7177 7.38352V5.38352C10.1728 5.38352 8.7962 5.88339 7.80583 6.87833C6.81462 7.87411 6.30609 9.26948 6.31429 10.8773L8.31427 10.8671ZM11.7177 7.38352C12.7915 7.38352 13.6547 7.71616 14.2369 8.24121C14.8082 8.75643 15.1779 9.51677 15.1779 10.5312H17.1779C17.1779 8.98891 16.5959 7.67539 15.5763 6.75594C14.5676 5.84634 13.2006 5.38352 11.7177 5.38352V7.38352ZM15.1779 10.5312C15.1779 12.3576 14.1188 13.6642 11.422 16.2596L12.8088 17.7006C15.3961 15.2108 17.1779 13.3356 17.1779 10.5312H15.1779ZM11.436 16.2464L1.08089 25.8344L2.43971 27.3019L12.7948 17.7139L11.436 16.2464ZM0.7603 26.5682V31H2.7603V26.5682H0.7603Z" fill="#8994A3"/>
</svg>
