<svg width="40" height="40" viewBox="0 0 40 40" fill="none" xmlns="../../../../external.html?link=http://www.w3.org/2000/svg">
<path d="M31.0802 19.1685C31.4619 20.491 31.666 21.8885 31.666 23.3335C31.666 31.6177 24.9502 38.3335 16.666 38.3335C8.38185 38.3335 1.66602 31.6177 1.66602 23.3335C1.66602 15.0493 8.38185 8.3335 16.666 8.3335C18.1127 8.3335 19.5119 8.5385 20.8352 8.92016" stroke="#1B63FF" stroke-width="2" stroke-miterlimit="10"/>
<path d="M16.6654 31.6667C21.2677 31.6667 24.9987 27.9357 24.9987 23.3333C24.9987 18.731 21.2677 15 16.6654 15C12.063 15 8.33203 18.731 8.33203 23.3333C8.33203 27.9357 12.063 31.6667 16.6654 31.6667Z" stroke="#1B63FF" stroke-width="2" stroke-miterlimit="10" stroke-linecap="square"/>
<path d="M16.666 23.3332L35.8327 4.1665" stroke="#1B63FF" stroke-width="2" stroke-miterlimit="10" stroke-linecap="square"/>
<path d="M32.4987 7.5L30.832 2.5L25.832 7.5L27.4987 12.5L32.4987 14.1667L37.4987 9.16667L32.4987 7.5Z" stroke="#1B63FF" stroke-width="2" stroke-miterlimit="10" stroke-linecap="square"/>
</svg>
