<svg width="40" height="40" viewBox="0 0 40 40" fill="none" xmlns="../../../../external.html?link=http://www.w3.org/2000/svg">
<path d="M19.9993 11.2788L22.5743 16.4963L28.3327 17.333L24.166 21.3946L25.1493 27.1296L19.9993 24.4213L14.8493 27.1296L15.8327 21.3946L11.666 17.333L17.4243 16.4963L19.9993 11.2788Z" stroke="#1B63FF" stroke-width="2" stroke-miterlimit="10" stroke-linecap="square"/>
<path d="M19.9993 38.3332C30.1246 38.3332 38.3327 30.1251 38.3327 19.9998C38.3327 9.87462 30.1246 1.6665 19.9993 1.6665C9.87413 1.6665 1.66602 9.87462 1.66602 19.9998C1.66602 30.1251 9.87413 38.3332 19.9993 38.3332Z" stroke="#1B63FF" stroke-width="2" stroke-miterlimit="10"/>
<path d="M20 31.6665V33.3332" stroke="#1B63FF" stroke-width="2" stroke-miterlimit="10" stroke-linecap="square"/>
<path d="M31.0957 23.605L32.6807 24.12" stroke="#1B63FF" stroke-width="2" stroke-miterlimit="10" stroke-linecap="square"/>
<path d="M26.8574 10.5617L27.8374 9.21338" stroke="#1B63FF" stroke-width="2" stroke-miterlimit="10" stroke-linecap="square"/>
<path d="M13.1421 10.5617L12.1621 9.21338" stroke="#1B63FF" stroke-width="2" stroke-miterlimit="10" stroke-linecap="square"/>
<path d="M8.90336 23.605L7.31836 24.12" stroke="#1B63FF" stroke-width="2" stroke-miterlimit="10" stroke-linecap="square"/>
</svg>
