<svg width="40" height="40" viewBox="0 0 40 40" fill="none" xmlns="../../../../external.html?link=http://www.w3.org/2000/svg">
<path d="M23.4277 28.538L17.561 26.1905C17.2889 26.0818 17.0503 25.9034 16.8692 25.6731C16.6881 25.4428 16.5709 25.1689 16.5294 24.8788L16.1027 21.8913C17.2646 21.3613 18.2496 20.5084 18.9405 19.4343C19.6313 18.3602 19.9989 17.1101 19.9993 15.833V10.8938C19.9987 9.92955 19.6153 9.00493 18.9335 8.32307C18.2516 7.6412 17.327 7.25784 16.3627 7.25718L15.4218 5.37468C15.3443 5.22845 15.2175 5.11433 15.064 5.05243C14.9105 4.99053 14.74 4.98483 14.5827 5.03635L10.0927 6.63885C9.11908 7.04033 8.27985 7.71061 7.67306 8.57136C7.06627 9.43211 6.71698 10.4478 6.66602 11.4997V15.833C6.66648 17.1101 7.03403 18.3602 7.72488 19.4343C8.41574 20.5084 9.40078 21.3613 10.5627 21.8913L10.136 24.8788C10.0945 25.1689 9.97729 25.4428 9.79617 25.6731C9.61505 25.9034 9.37642 26.0818 9.10435 26.1905L3.23768 28.538C2.7738 28.7235 2.37615 29.0438 2.09601 29.4575C1.81587 29.8711 1.6661 30.3592 1.66602 30.8588V34.9997H24.9994V30.8588C24.9993 30.3592 24.8495 29.8711 24.5694 29.4575C24.2892 29.0438 23.8916 28.7235 23.4277 28.538V28.538Z" stroke="#1B63FF" stroke-width="2" stroke-miterlimit="10" stroke-linecap="square"/>
<path d="M29.9985 34.9998H38.3318V29.2498C38.3317 28.7367 38.1737 28.236 37.8793 27.8157C37.5849 27.3955 37.1682 27.076 36.686 26.9007L30.1026 24.5073C29.818 24.4044 29.5668 24.2259 29.3759 23.991C29.1851 23.7561 29.0618 23.4737 29.0193 23.174L28.5976 20.2215C29.7598 19.6923 30.7454 18.8402 31.4369 17.7667C32.1285 16.6932 32.497 15.4435 32.4985 14.1665V9.22734C32.4978 8.26304 32.1144 7.33843 31.4326 6.65656C30.7507 5.9747 29.8261 5.59134 28.8618 5.59068L27.921 3.70818C27.8434 3.56195 27.7166 3.44782 27.5631 3.38592C27.4096 3.32402 27.2391 3.31833 27.0818 3.36984L22.5918 4.97234" stroke="#1B63FF" stroke-width="2" stroke-miterlimit="10" stroke-linecap="square"/>
</svg>
