<svg width="41" height="40" viewBox="0 0 41 40" fill="none" xmlns="../../../../external.html?link=http://www.w3.org/2000/svg">
<path d="M5.49935 3.3335H35.4993C36.3834 3.3335 37.2312 3.68469 37.8564 4.30981C38.4815 4.93493 38.8327 5.78277 38.8327 6.66683V24.1668C38.8327 25.0509 38.4815 25.8987 37.8564 26.5239C37.2312 27.149 36.3834 27.5002 35.4993 27.5002H22.166L10.4993 36.6668V27.5002H5.49935C4.61529 27.5002 3.76745 27.149 3.14233 26.5239C2.51721 25.8987 2.16602 25.0509 2.16602 24.1668V6.66683C2.16602 5.78277 2.51721 4.93493 3.14233 4.30981C3.76745 3.68469 4.61529 3.3335 5.49935 3.3335V3.3335Z" stroke="#1B63FF" stroke-width="2" stroke-miterlimit="10" stroke-linecap="square"/>
</svg>
