<svg width="16" height="12" viewBox="0 0 16 12" fill="none" xmlns="../../../../external.html?link=http://www.w3.org/2000/svg">
<path d="M16 11.3333C16 11.7017 15.7017 12 15.3333 12H0.666667C0.298333 12 0 11.7017 0 11.3333V0.666667C0 0.298333 0.298333 0 0.666667 0H15.3333C15.7017 0 16 0.298333 16 0.666667V11.3333Z" fill="#EF2B2D"/>
<path d="M3.33333 4H0V4.66667H4V4V0H3.33333V4Z" fill="white"/>
<path d="M0 8.00016H3.33333V12.0002H4V8.00016V7.3335H0V8.00016Z" fill="white"/>
<path d="M7.33366 4V0H6.66699V4V4.66667H16.0003V4H7.33366Z" fill="white"/>
<path d="M6.66699 8.00016V12.0002H7.33366V8.00016H16.0003V7.3335H6.66699V8.00016Z" fill="white"/>
<path d="M16 4.66667H6.66667V0H4V4.66667H0V7.33333H4V12H6.66667V7.33333H16V4.66667Z" fill="#003680"/>
</svg>
