<svg width="23" height="32" viewBox="0 0 23 32" fill="none" xmlns="http://www.w3.org/2000/svg">
<path d="M12 24.1186V31.9999L22.2857 18.2856L12 24.1186Z" fill="url(#paint0_linear)"/>
<path d="M22.2857 16L12 0V11.6267L22.2857 16Z" fill="url(#paint1_linear)"/>
<path d="M12 12.5715V21.7144L22.2857 16.5879L12 12.5715Z" fill="url(#paint2_linear)"/>
<path d="M0.568359 16L10.8541 0V11.6267L0.568359 16Z" fill="url(#paint3_linear)"/>
<path d="M10.8541 12.5715V21.7144L0.568359 16.5879L10.8541 12.5715Z" fill="url(#paint4_linear)"/>
<path d="M10.8541 24.1188V32.0002L0.568359 18.2859L10.8541 24.1188Z" fill="url(#paint5_linear)"/>
<defs>
<linearGradient id="paint0_linear" x1="12.9522" y1="19.5553" x2="23.6802" y2="27.6013" gradientUnits="userSpaceOnUse">
<stop stop-color="#6E75B8"/>
<stop offset="1" stop-color="#495B9D"/>
</linearGradient>
<linearGradient id="paint1_linear" x1="12.9522" y1="1.48125" x2="24.8131" y2="9.10607" gradientUnits="userSpaceOnUse">
<stop stop-color="#6E75B8"/>
<stop offset="1" stop-color="#495B9D"/>
</linearGradient>
<linearGradient id="paint2_linear" x1="12.9522" y1="13.418" x2="20.3509" y2="21.7414" gradientUnits="userSpaceOnUse">
<stop stop-color="#6E75B8"/>
<stop offset="1" stop-color="#495B9D"/>
</linearGradient>
<linearGradient id="paint3_linear" x1="1.52059" y1="1.48125" x2="13.3814" y2="9.10607" gradientUnits="userSpaceOnUse">
<stop stop-color="#6E75B8"/>
<stop offset="1" stop-color="#495B9D"/>
</linearGradient>
<linearGradient id="paint4_linear" x1="1.52059" y1="13.418" x2="8.91922" y2="21.7414" gradientUnits="userSpaceOnUse">
<stop stop-color="#6E75B8"/>
<stop offset="1" stop-color="#495B9D"/>
</linearGradient>
<linearGradient id="paint5_linear" x1="1.52059" y1="19.5555" x2="12.2486" y2="27.6015" gradientUnits="userSpaceOnUse">
<stop stop-color="#6E75B8"/>
<stop offset="1" stop-color="#495B9D"/>
</linearGradient>
</defs>
</svg>
