<svg width="32" height="29" viewBox="0 0 32 29" fill="none" xmlns="http://www.w3.org/2000/svg">
<path d="M19.2525 9.87088V6.03878H28.2203V0.199951H3.80084V6.03878H12.7696V9.86779C5.48061 10.1949 0 11.6056 0 13.2955C0 14.9853 5.48324 16.396 12.7696 16.7252V29H19.2546V16.7241C26.5305 16.396 32 14.9864 32 13.298C32 11.6097 26.5305 10.2001 19.2546 9.87191L19.2525 9.87088ZM19.2546 15.6845V15.6814C19.0717 15.6927 18.1316 15.7478 16.0385 15.7478C14.365 15.7478 13.1877 15.7015 12.7728 15.6803V15.6855C6.33315 15.4068 1.52635 14.3109 1.52635 12.9997C1.52635 11.6885 6.33367 10.5942 12.7728 10.315V14.5938C13.1946 14.6221 14.4009 14.6917 16.0659 14.6917C18.0657 14.6917 19.0711 14.6103 19.2557 14.5938V10.315C25.6827 10.5947 30.4784 11.6916 30.4784 12.9982C30.4784 14.3047 25.6806 15.4021 19.2557 15.6819" fill="url(#paint0_linear)"/>
<defs>
<linearGradient id="paint0_linear" x1="0" y1="0.199951" x2="28.6409" y2="32.0232" gradientUnits="userSpaceOnUse">
<stop stop-color="#3CD3A8"/>
<stop offset="1" stop-color="#53AE94"/>
</linearGradient>
</defs>
</svg>
