<svg width="25" height="34" viewBox="0 0 25 34" fill="none" xmlns="http://www.w3.org/2000/svg">
<path d="M24.4787 19.5437C24.2736 18.0779 23.5354 16.9379 22.264 16.205C21.6898 15.8793 20.9926 15.635 20.3364 15.3499C20.4184 15.3092 20.4594 15.2278 20.5005 15.2278C23.7404 13.5584 23.4534 8.59108 21.1156 6.88101C20.1724 6.18884 19.106 5.74096 17.9577 5.49667C17.1374 5.3338 16.3582 5.21165 15.4969 5.04879C15.4969 3.62373 15.5379 1.58793 15.5379 0H12.462C12.462 1.54721 12.421 3.5423 12.421 4.92664H10.0012C10.0012 3.50158 10.0012 1.54721 10.0423 0H7.00733C7.00733 1.62864 6.96632 3.58301 6.96632 5.00807C4.87468 5.00807 2.86506 4.96736 0.814434 4.96736C0.814434 6.06669 0.814435 7.12531 0.773422 8.18392H2.0038C2.37291 8.18392 2.78304 8.18392 3.15215 8.22464C4.21848 8.30607 4.75164 8.8761 4.75164 9.93471L4.6286 22.9231C4.6286 23.8596 4.21847 24.2668 3.27519 24.2668H1.22456C1.0195 25.4882 0.814435 26.669 0.568359 27.8905C2.61899 27.9312 4.66961 27.9312 6.72024 27.9719C6.72024 29.5191 6.72024 31.5142 6.67923 33.1429H9.71416C9.71416 31.5142 9.75517 29.6006 9.75517 28.0534C10.6164 28.0941 11.3957 28.0941 12.1749 28.1348C12.1749 29.682 12.1339 31.5549 12.1339 33.1429H15.1688C15.1688 31.5142 15.2098 29.6006 15.2098 28.0941C15.3329 28.0941 15.4149 28.0534 15.4559 28.0534C16.8914 27.8091 18.4088 27.6869 19.8032 27.3612C21.6488 26.9133 23.1253 25.8547 23.8635 24.0225C24.5607 22.5567 24.6837 21.0909 24.4787 19.5437ZM10.0012 8.50965C11.8878 8.50965 13.7334 8.34679 15.4969 9.12039C16.6453 9.60899 17.2195 10.5455 17.1374 11.6855C17.0554 12.8663 16.3582 13.7213 15.1688 14.1285C13.4873 14.6578 11.7648 14.6578 9.96023 14.5763C9.96023 12.5405 10.0012 10.5862 10.0012 8.50965V8.50965ZM16.6453 23.6153C14.9638 24.3482 13.1592 24.3482 11.3957 24.3889C10.9035 24.3889 10.4114 24.3482 9.83719 24.3482C9.87821 22.1088 9.87821 19.9101 9.91922 17.6708C12.2159 17.6708 14.5126 17.5079 16.6863 18.4444C17.7936 18.933 18.4498 19.788 18.4498 21.0502C18.4498 22.3124 17.7936 23.1267 16.6453 23.6153V23.6153Z" fill="#F9A038"/>
</svg>
