<svg width="16" height="12" viewBox="0 0 16 12" fill="none" xmlns="../../../../external.html?link=http://www.w3.org/2000/svg">
<path d="M16 0.666667C16 0.298333 15.7017 0 15.3333 0H6.66667V6.66667H0V11.3333C0 11.7017 0.298333 12 0.666667 12H15.3333C15.7017 12 16 11.7017 16 11.3333V0.666667Z" fill="#B41F30"/>
<path d="M16.0003 1.3335H6.66699V2.66683H16.0003V1.3335Z" fill="#E6E6E6"/>
<path d="M16.0003 4H6.66699V5.33333H16.0003V4Z" fill="#E6E6E6"/>
<path d="M0 6.6665V7.99984H16V6.6665H6.66667H0Z" fill="#E6E6E6"/>
<path d="M16 9.3335H0V10.6668H16V9.3335Z" fill="#E6E6E6"/>
<path d="M6.66667 6.66667H0V0.666667C0 0.298333 0.298333 0 0.666667 0H6.66667V6.66667Z" fill="#00256A"/>
<path d="M3.33343 2.64062L3.12243 3.09663H2.62109L2.98776 3.47663L2.85243 4.02596L3.33343 3.75329L3.81443 4.02596L3.67909 3.47663L4.04576 3.09663H3.54376L3.33343 2.64062Z" fill="white"/>
<path d="M1.70223 1.00977L1.49157 1.46577H0.990234L1.35657 1.84577L1.22123 2.3951L1.70223 2.12243L2.18357 2.3951L2.0479 1.84577L2.41457 1.46577H1.91257L1.70223 1.00977Z" fill="white"/>
<path d="M4.96429 1.00977L5.17495 1.46577H5.67629L5.30995 1.84577L5.44529 2.3951L4.96429 2.12243L4.48295 2.3951L4.61862 1.84577L4.25195 1.46577H4.75395L4.96429 1.00977Z" fill="white"/>
<path d="M1.70223 5.65682L1.49157 5.20082H0.990234L1.35657 4.82082L1.22123 4.27148L1.70223 4.54415L2.18357 4.27148L2.0479 4.82082L2.41457 5.20082H1.91257L1.70223 5.65682Z" fill="white"/>
<path d="M4.96429 5.65682L5.17495 5.20082H5.67629L5.30995 4.82082L5.44529 4.27148L4.96429 4.54415L4.48295 4.27148L4.61862 4.82082L4.25195 5.20082H4.75395L4.96429 5.65682Z" fill="white"/>
</svg>
