<?xml version="1.0" encoding="UTF-8"?>
<svg width="158px" height="41px" viewBox="0 0 158 41" version="1.1" xmlns="http://www.w3.org/2000/svg" xmlns:xlink="http://www.w3.org/1999/xlink">
    <!-- Generator: sketchtool 51.2 (57519) - http://www.bohemiancoding.com/sketch -->
    <title>BAF55C26-0743-4869-9165-060E8CDC1F58</title>
    <desc>Created with sketchtool.</desc>
    <defs>
        <polygon id="path-1" points="5.7861064e-05 2.87609474e-05 45.8253438 2.87609474e-05 45.8253438 40.8639653 5.7861064e-05 40.8639653"></polygon>
        <polygon id="path-3" points="0 2.61261261e-05 99.9146597 2.61261261e-05 99.9146597 28.8280901 0 28.8280901"></polygon>
    </defs>
    <g id="Page-1" stroke="none" stroke-width="1" fill="none" fill-rule="evenodd">
        <g id="UI-Framerwork" transform="translate(-458.000000, -492.000000)">
            <g id="Logo" transform="translate(120.000000, 266.000000)">
                <g transform="translate(309.000000, 210.000000)" id="Logo-White">
                    <g transform="translate(28.000000, 12.000000)">
                        <rect id="Background" x="0" y="0" width="160" height="50"></rect>
                        <g id="Logomark" transform="translate(1.000000, 4.000000)">
                            <mask id="mask-2" fill="white">
                                <use xlink:href="#path-1"></use>
                            </mask>
                            <g id="Clip-2"></g>
                            <path d="M4.24800417,8.73409017 C4.63301458,8.51368555 5.12631667,8.64426936 5.34912917,9.02559306 C5.57122292,9.40762775 5.43945208,9.89536185 5.05372292,10.1152925 C4.66823333,10.3352231 4.17541042,10.2046393 3.95235833,9.8237896 C3.73050417,9.44175491 3.86203542,8.95402081 4.24800417,8.73409017 M3.15119167,31.7483618 C2.69406667,32.0100035 2.10948333,31.8550092 1.84522292,31.4025873 C1.58120208,30.9504023 1.73788958,30.3723734 2.19573333,30.1107318 C2.65285833,29.8502751 3.23720208,30.0047954 3.50122292,30.4569803 C3.76500417,30.9091653 3.6078375,31.4879052 3.15119167,31.7483618 M14.4358062,38.6967954 L16.023525,38.7773734 C16.0601812,38.5399052 16.1514625,38.3116798 16.2935354,38.1130786 L11.5469104,34.0429399 C11.5057021,34.077304 11.4606604,34.1090613 11.4125042,34.1360786 C11.1920875,34.2623965 10.9422021,34.2915468 10.7124417,34.2363272 L9.79435833,36.4060092 C10.0420875,36.537304 10.2557958,36.7359052 10.4064937,36.9942289 C10.8389417,37.7343618 10.5823479,38.6809168 9.83412917,39.1082173 C9.08543125,39.5359919 8.12853542,39.2821711 7.69680625,38.5420382 C7.26531667,37.8014312 7.52119167,36.8548763 8.26988958,36.4280497 C8.66160833,36.2040902 9.11034792,36.1675931 9.51141042,36.2889341 L10.4285354,34.119726 C10.2998792,34.0405699 10.1879937,33.9291827 10.1065354,33.790304 C9.84323333,33.3378821 9.99944167,32.7593792 10.4565667,32.4986855 C10.9141708,32.2372809 11.498275,32.3922751 11.7625354,32.8444601 C11.9446187,33.1556335 11.9268896,33.5277145 11.7486396,33.8137665 L16.4943062,37.8834312 C16.5815146,37.8019052 16.6802229,37.728911 16.7887542,37.6668185 C17.5369729,37.2395179 18.4938687,37.4933387 18.9253583,38.2334717 C19.3575667,38.9731306 19.1012125,39.9201595 18.3529937,40.3479341 C17.604775,40.7745237 16.6474,40.5209399 16.2159104,39.7812809 C16.086775,39.5599283 16.0189729,39.3193792 16.0072333,39.079541 L14.4199937,38.999911 C14.3644104,39.2518358 14.206525,39.4793503 13.9633479,39.6191769 C13.5062229,39.8793965 12.9216396,39.7248763 12.6578583,39.2729283 C12.3938375,38.8202694 12.550525,38.2417665 13.0074104,37.9810728 C13.4645354,37.7201422 14.0493583,37.8751364 14.3138583,38.3268474 C14.3821396,38.4439225 14.4219104,38.5704775 14.4358062,38.6967954 M15.3713792,6.53217688 L13.7503583,9.46024046 C13.8878792,9.55859306 14.0067125,9.68633295 14.0970354,9.84085318 C14.4391604,10.4259919 14.2364729,11.1748936 13.6447021,11.5123734 C13.05365,11.8500902 12.2965667,11.6493561 11.9554,11.0646913 C11.6142333,10.4790786 11.8164417,9.73112486 12.4084521,9.39269711 L12.4522958,9.36828671 L10.6034313,4.47838497 C10.0854521,4.60162197 9.52578542,4.37979538 9.24547292,3.89988208 C8.90406667,3.31474335 9.10651458,2.56631561 9.698525,2.22836185 C10.2895771,1.89040809 11.0461813,2.09137919 11.3878271,2.67628092 C11.7294729,3.26141965 11.5267854,4.00937341 10.934775,4.34732717 L10.8904521,4.37197457 L12.7400354,9.2618763 C12.9899208,9.20310173 13.24915,9.22372023 13.4817854,9.31496301 L15.1018479,6.38642543 C15.0072125,6.31366821 14.9257542,6.22195145 14.8622646,6.1131711 C14.5977646,5.66098613 14.7549313,5.08248324 15.2118167,4.82226358 C15.6689417,4.56085896 16.2537646,4.71585318 16.5177854,5.16756416 C16.7815667,5.62022312 16.6248792,6.19848902 16.1677542,6.45989364 C15.9164313,6.60351214 15.6253375,6.62057572 15.3713792,6.53217688 M12.3109417,29.7033387 C11.9867854,29.7113965 11.6746083,29.7113965 11.3770458,29.7031017 C9.45247292,29.649778 8.20855625,29.3082694 7.98215,28.667437 L7.96801458,28.628096 C7.76868125,27.8791942 8.70185833,26.7617665 10.4318896,25.4921884 C10.5605458,26.2809052 10.7883896,27.0404717 11.1108687,27.7566682 C11.4232854,28.4512983 11.8253063,29.1039803 12.3109417,29.7033387 M15.7017646,30.8489688 C17.0877542,30.6570035 18.5906604,30.3728474 20.1699938,29.9960266 C21.6992542,29.6312925 23.2910458,29.1845584 24.9077542,28.6586682 C26.091775,28.2730786 28.9377854,27.2807838 31.84465,25.9230439 C31.52265,26.8155642 31.0837333,27.6149457 30.5417958,28.3185815 C30.03915,28.1107376 29.4478583,28.1296971 28.9413792,28.4190671 C28.2058583,28.8392578 27.8812229,29.694096 28.1085875,30.4662231 C26.8337646,31.2333734 25.3150458,31.7474139 23.6022646,32.0012347 C23.5826188,31.9604717 23.5605771,31.9201827 23.5378167,31.8803676 C22.9884521,30.9392636 21.7718479,30.6167145 20.8204625,31.1601422 C20.4227542,31.3869457 20.1350146,31.7289283 19.9740146,32.1192578 C18.3264,31.9663965 16.8924937,31.5194254 15.7017646,30.8489688 M28.2525771,13.0495179 C28.1871708,13.4753965 28.2619208,13.9256855 28.4959938,14.3281017 C29.0453583,15.2689688 30.2619625,15.5917549 31.2138271,15.0483272 C32.1644938,14.5048994 32.4912854,13.3016798 31.9419208,12.3598647 C31.3925563,11.4197087 30.1759521,11.0976335 29.2240875,11.6405873 C29.0997437,11.7116855 28.9845042,11.7951075 28.8814833,11.8872983 C26.8582021,10.9874312 24.7553792,10.6708069 22.6865771,10.9030613 C22.2912646,10.9476162 21.89715,11.0118416 21.5054313,11.0962116 C20.9431292,10.1939746 19.7531187,9.8932289 18.8185042,10.4269399 C18.0681292,10.8549514 17.7068375,11.6955699 17.8580146,12.4930555 C16.8898583,13.0369572 15.9538063,13.7114428 15.0656708,14.5112983 C14.1852021,15.302859 13.4345875,16.1299688 12.8066396,16.9755642 C12.3526292,16.8757896 11.8602854,16.9371711 11.4252021,17.185304 C10.739275,17.5772925 10.3887646,18.3250092 10.4757333,19.0577954 L7.71597292,19.8334775 L7.67141042,19.7479225 C7.54179583,19.526096 7.33910833,19.3715757 7.11174375,19.2959746 L7.88200417,14.8843272 C8.11032708,14.8949919 8.34487917,14.8435642 8.55762917,14.7219861 C9.14963958,14.3845064 9.35184792,13.6356046 9.01068125,13.0504659 C8.66903542,12.4658012 7.91243125,12.2648301 7.32137917,12.6023098 C6.72936875,12.9407376 6.52692083,13.6886913 6.86856667,14.274304 C7.03124375,14.5534832 7.29047292,14.7454486 7.57917083,14.8324254 L6.80938958,19.2443098 C6.62970208,19.2400439 6.4469,19.2836509 6.28015,19.3793965 C6.11411875,19.4732462 5.9854625,19.608096 5.89849375,19.7626162 L2.90873333,18.6669919 C3.00193125,18.3091306 2.95832708,17.9185642 2.75755625,17.5742116 C2.34954583,16.8753156 1.44559792,16.6354775 0.739066667,17.0390786 C0.0322958333,17.4426798 -0.209922917,18.337096 0.198566667,19.0359919 C0.606097917,19.7348879 1.51004583,19.974726 2.21657708,19.5706509 C2.47916042,19.4206335 2.67801458,19.2030728 2.80307708,18.9525699 L5.79116042,20.0481942 C5.742525,20.2821075 5.77726458,20.5328474 5.90687917,20.755148 C6.18815,21.2374312 6.81130625,21.4021422 7.29837917,21.124385 C7.6644625,20.9151191 7.84966042,20.5157838 7.80006667,20.1254543 L10.5361083,19.3561711 C10.578275,19.5038185 10.6396083,19.648385 10.7210667,19.7877376 C10.8075563,19.9368069 10.911775,20.0695237 11.0289312,20.1851769 C10.7790458,20.8444948 10.5964833,21.5035757 10.47765,22.1557838 C10.377025,22.7103503 10.3226396,23.2606509 10.3132958,23.8017087 C7.62732708,25.634859 6.1809625,27.4838879 6.57411875,28.9620208 C6.59136875,29.0248243 6.6064625,29.076252 6.62035833,29.1155931 C7.07484792,30.4010497 8.80703542,31.0658185 11.3722542,31.1369168 C12.0742333,31.1558763 12.8480875,31.1343098 13.6811188,31.0698474 C14.0587021,31.374385 14.4650354,31.6559341 14.9005979,31.9104659 C16.2935354,32.724778 17.9768479,33.2639399 19.9102854,33.4352867 C19.9543688,33.5767723 20.0147437,33.7151769 20.0923687,33.8481306 C20.6417333,34.7887607 21.8578583,35.1113098 22.8097229,34.5678821 C23.3056604,34.285148 23.6317333,33.8211133 23.7520042,33.3096798 C25.7163479,33.0241017 27.4636292,32.4204775 28.9301187,31.5097087 C29.4720562,31.823963 30.1646917,31.8483734 30.7475979,31.5156335 C31.1220667,31.3023387 31.3887229,30.9769457 31.5310354,30.6074717 L35.2287646,31.6957491 C35.1827646,31.9663965 35.2278063,32.2529225 35.3765875,32.5088763 C35.7189521,33.093541 36.4753167,33.2940382 37.0666083,32.9565584 L37.074275,32.9520555 L39.1330146,35.6056798 C39.0592229,35.6879168 39.0048375,35.7843734 38.9712958,35.8869919 L32.5988583,35.105148 C32.5988583,34.897304 32.5454313,34.6873272 32.4323479,34.4946509 C32.0907021,33.9097491 31.3345771,33.709252 30.7430458,34.0472058 C30.1965563,34.3586162 29.9821292,35.020541 30.2217125,35.5810324 L24.4877646,38.8503676 C24.1976292,38.4962983 23.6813271,38.3934428 23.2692438,38.628778 C22.8118792,38.8901827 22.6556708,39.4684486 22.9192125,39.9201595 C23.1834729,40.3728185 23.7680563,40.5273387 24.2256604,40.2673561 C24.6365458,40.0313098 24.8049729,39.5385988 24.6410979,39.1129572 L30.3743271,35.844096 C30.4500354,35.9431595 30.5389208,36.0277665 30.63715,36.0981538 L29.0163687,39.0266913 C28.7616917,38.9378185 28.4715563,38.9555931 28.2199938,39.0989746 C27.7631083,39.3601422 27.6059417,39.9386451 27.8699625,40.391304 C28.1337438,40.843015 28.7178479,40.9987202 29.1754521,40.7366046 C29.6330563,40.476385 29.7892646,39.8978821 29.5254833,39.4452231 C29.4627125,39.3369168 29.3802958,39.2452 29.2859,39.1729168 L30.9066813,36.2443792 C31.2456917,36.376859 31.6395667,36.3600324 31.9802542,36.1661711 C32.2806917,35.9938763 32.4809833,35.7158821 32.5595667,35.4070786 L38.9327229,36.1889225 C38.9413479,36.3064717 38.9758479,36.4240208 39.0386188,36.5332751 C39.2614313,36.9141249 39.7544938,37.0451827 40.1402229,36.824778 C40.5257125,36.6050844 40.6577229,36.1171133 40.4349104,35.7353156 C40.2204833,35.3686855 39.7554521,35.2326509 39.3773896,35.4205873 L37.3174521,32.767674 C37.7086917,32.3854023 37.8059625,31.7775121 37.5196604,31.2850382 C37.3802229,31.046148 37.1725042,30.8721942 36.9348375,30.7717087 L37.9772646,27.1793503 C38.1916917,27.2061306 38.4161813,27.1677376 38.6174313,27.0530324 C38.82515,26.9340613 38.9748896,26.7529977 39.0563479,26.5479977 L41.4418792,27.0817087 C41.4064208,27.3843503 41.4644,27.7009746 41.6299521,27.9848936 C42.0379625,28.6837896 42.94215,28.9233908 43.6486813,28.5197896 C44.3552125,28.1161884 44.5976708,27.2224832 44.1896604,26.5231133 C43.78165,25.8239803 42.8774625,25.5843792 42.1709313,25.9884543 C41.8472542,26.1730728 41.6206083,26.4605468 41.5101604,26.7854659 L39.1236708,26.2517549 C39.1378063,26.0578936 39.0956396,25.8573965 38.9899833,25.675859 C38.7091917,25.1940497 38.0857958,25.0288647 37.5982438,25.3075699 C37.11165,25.5855642 36.9441812,26.2022231 37.2256917,26.6835584 C37.3354208,26.8714948 37.4971396,27.0113214 37.6816188,27.0952173 L36.6389521,30.6880497 C36.3694208,30.6458647 36.0840771,30.6916046 35.8294,30.8371191 C35.5926917,30.9726798 35.4187542,31.1745988 35.3157333,31.4049572 L31.6170458,30.3150208 C31.6872438,29.9635584 31.6517854,29.5900555 31.4972542,29.2447549 C32.4191708,28.0932 33.0902438,26.7169746 33.4663896,25.1265064 C37.2343167,23.1777029 40.5894417,20.6769399 39.9210042,18.1629052 C39.9042333,18.1001017 39.8884208,18.048674 39.8752438,18.0093329 C39.5177854,16.9973676 38.3675458,16.3702809 36.6427854,16.1143272 C36.6015771,16.0100497 36.5491083,15.9081422 36.4856188,15.8105006 C35.9810563,15.0367145 34.7083896,14.9502116 34.1805875,15.2815295 C32.5492646,16.3043965 33.6180458,19.0905006 36.0090875,18.0837491 C36.5529417,17.8545757 36.4170979,17.7495873 36.5435979,17.5310786 C37.6487958,17.6853618 38.3488583,17.9925064 38.5134521,18.457252 L38.5275875,18.4970671 C38.9188271,19.9690382 36.6202646,21.7235064 33.7526917,23.2824543 C33.8022854,22.2451306 33.5619833,21.5026277 33.1031813,20.9980671 C33.1324104,20.6537145 33.0593375,20.2972751 32.8712646,19.975674 C32.3827542,19.1371884 31.2988792,18.8499514 30.4509937,19.3341306 C30.1131813,19.5265699 29.8642542,19.813096 29.7173896,20.1413329 C28.8917854,20.2157491 27.9859208,20.4001306 27.0472333,20.6575064 C24.4482333,21.370148 21.5878479,22.6657954 19.6956188,23.5879399 C19.1405042,23.1077896 18.3175354,23.0046971 17.6431083,23.3898127 C16.7957021,23.8730439 16.5055667,24.9459168 16.9945562,25.7841653 C17.484025,26.6221769 18.5679,26.9089399 19.4148271,26.4252347 C20.0286396,26.0749572 20.3506396,25.4158763 20.2950563,24.7603503 C22.1420042,23.8604832 24.9154208,22.6046509 27.4001396,21.9228185 C28.2123271,21.7007549 28.9919312,21.5410208 29.6845667,21.4855642 C29.7173896,21.5682751 29.7566813,21.6488532 29.8024417,21.7284832 C30.2919104,22.5662578 31.3757854,22.8532578 32.2236708,22.3695526 L32.2339729,22.3641017 C32.3940146,22.6847549 32.4529521,23.1028127 32.3853896,23.6336798 C32.3695771,23.7637896 32.3508896,23.8929514 32.3302854,24.0197434 C29.0106187,25.6640092 25.413275,26.9734023 24.4221187,27.2959514 C22.8205042,27.8175757 21.2677646,28.2545931 19.7984,28.6046335 C17.6862333,29.1082462 15.7235667,29.4424081 14.011025,29.6011942 C13.2874833,28.9077491 12.7203896,28.1033908 12.3226813,27.2220092 C11.9618688,26.4212058 11.7392958,25.5542809 11.6657438,24.647778 C15.7985563,21.983963 20.3928062,20.0801884 25.1566813,18.7771942 C25.6995771,19.3658879 26.7535042,19.4118647 27.2839417,19.0793618 C27.8155771,18.746148 27.9025458,18.4809514 27.9933479,18.0806682 C28.0973271,17.6272983 27.9971813,17.1687145 27.7389104,16.7729341 L27.7369937,16.7710382 L27.7369937,16.7700902 L27.7360354,16.7686682 L27.7341188,16.7670092 L27.7331604,16.7651133 L27.7314833,16.7632173 L27.730525,16.7608474 L27.7295667,16.7589514 L27.7192646,16.7452058 L27.7173479,16.7433098 L27.7163896,16.7409399 L27.7144729,16.7390439 L27.7135146,16.737385 L27.7118375,16.735015 L27.7099208,16.7331191 L27.7089625,16.7307491 L27.6912333,16.7079977 L27.690275,16.7058647 L27.6893167,16.7039688 L27.6874,16.7015988 L27.6864417,16.7006509 L27.6864417,16.6997029 L27.6696708,16.6783734 C27.1380354,16.0076798 26.1806604,15.8225873 25.4561604,16.2766682 C25.0416812,16.5364139 24.7889208,16.9511538 24.7235146,17.4004948 C20.1474729,18.6499283 15.7283583,20.4458705 11.7040771,22.9096624 C11.7256396,22.7361827 11.7517542,22.5631769 11.7831396,22.3880382 C11.8823271,21.8420035 12.0335042,21.288859 12.2381083,20.7347665 C12.6132958,20.7639168 13.0007021,20.6852347 13.3512125,20.4847376 C14.27265,19.9588474 14.5879417,18.7937838 14.0563063,17.882541 C14.0165354,17.8142867 13.9731708,17.7486393 13.9262125,17.6879688 C14.4930667,16.9345642 15.1691708,16.1956162 15.9609937,15.4841595 C16.7794104,14.7468705 17.6395146,14.1285526 18.5262125,13.6308647 C19.1484104,14.153437 20.0609833,14.2612694 20.8077646,13.8342058 C21.3664729,13.5152116 21.7095562,12.9689399 21.7867021,12.3821422 C22.1333792,12.307489 22.4829313,12.2501364 22.8329625,12.2107954 C24.6382229,12.0079283 26.4763063,12.2778647 28.2525771,13.0495179 M34.3909417,10.4276509 L34.4031604,10.420304 L33.152775,7.33582428 C32.756025,7.42327514 32.3312437,7.25145434 32.1158583,6.88529827 C32.0607542,6.78907861 32.0233792,6.68811908 32.0046917,6.58550058 L28.3781187,6.66821156 C28.3397854,7.16021156 28.0635458,7.62637919 27.5994729,7.89204971 C26.8517333,8.31935029 25.8943583,8.06576647 25.4619104,7.32563353 C25.327025,7.09409017 25.2587438,6.84240231 25.2532333,6.5928474 L21.5701187,6.32978382 C21.5116604,6.57436185 21.3556917,6.79500347 21.1189833,6.92985318 C20.6613792,7.1912578 20.0767958,7.03626358 19.8125354,6.58407861 C19.5489937,6.13189364 19.7054417,5.55362775 20.1625667,5.29222312 C20.3978375,5.15737341 20.6683271,5.13343699 20.9107854,5.20406127 L22.3420562,2.25277225 C22.1812958,2.15110173 22.0418583,2.01032717 21.9393167,1.83542543 C21.5986292,1.25028671 21.8017958,0.502332948 22.3926083,0.163905202 C22.9841396,-0.173574566 23.7407438,0.0269225434 24.0823896,0.611587283 C24.4240354,1.19696301 24.2208687,1.94539075 23.6293375,2.28287052 C23.3102125,2.46583006 22.9424521,2.49024046 22.6182958,2.38335607 L21.1872646,5.33511908 C21.29915,5.41237919 21.3954625,5.51428671 21.4680562,5.63823468 C21.5401708,5.76147168 21.5804208,5.89347746 21.5928792,6.02666821 L25.2757542,6.28973179 C25.3514625,5.85271445 25.6162021,5.45053526 26.0347542,5.2111711 C26.5522542,4.91635029 27.1689417,4.94597457 27.6433167,5.23747746 L30.0317229,2.16129249 C29.9830875,2.10891676 29.9382854,2.05061618 29.8997125,1.98567977 C29.6368896,1.53396879 29.7930979,0.955465896 30.2497438,0.694298266 C30.7073479,0.432893642 31.2924104,0.58836185 31.5561917,1.04102081 C31.8202125,1.49273179 31.6640042,2.07147168 31.2061604,2.33240231 C30.9085979,2.50185318 30.5576083,2.49592832 30.2751396,2.34638497 L27.8876917,5.42256994 C27.9971812,5.52400347 28.0934937,5.64297457 28.1720771,5.77758728 C28.2808479,5.96457572 28.3462542,6.16365087 28.3706917,6.36462197 L31.997025,6.28262197 C32.0363167,6.00320578 32.20115,5.74488208 32.4658896,5.59344277 C32.9234938,5.33227514 33.5085563,5.48750636 33.7716188,5.93969133 C34.032525,6.38689942 33.8827854,6.95710751 33.4374,7.22230405 L34.6877854,10.3074948 C34.9067646,10.2522751 35.1322125,10.2605699 35.3408896,10.3264543 L37.0050354,6.81183006 C36.8907542,6.73480694 36.7906083,6.63124046 36.7165771,6.50397457 C36.4537542,6.05131561 36.6090042,5.47257572 37.0666083,5.21259306 C37.5244521,4.95095145 38.1083167,5.10641965 38.3723375,5.55789364 C38.6361188,6.0105526 38.4799104,6.5885815 38.0232646,6.85022312 C37.7891917,6.98293988 37.5234938,7.00758728 37.2829521,6.94051792 L35.6188063,10.4546682 C35.7742958,10.5523098 35.9089417,10.6878705 36.0074104,10.8563734 C36.0354417,10.9035353 36.0586813,10.9530671 36.0792854,11.0025988 L42.4208167,9.36970867 C42.3879938,9.01326936 42.5612125,8.65351214 42.8954313,8.4624948 C43.3530354,8.20180116 43.9369,8.35679538 44.2018792,8.80850636 C44.4647021,9.26092832 44.3084937,9.83895723 43.8508896,10.1005988 C43.7871604,10.137096 43.7198375,10.1657723 43.6515563,10.1866277 L44.5761083,16.9511538 C45.0066396,16.9473618 45.4278271,17.1672925 45.659025,17.5630728 C46.0013896,18.1482116 45.7984625,18.8961653 45.2069313,19.2345931 C44.6154,19.5718358 43.8583167,19.3715757 43.5176292,18.786437 C43.2322854,18.2989399 43.3257229,17.6976855 43.7076188,17.3154139 L40.6304104,13.4540671 L40.6098063,13.4661538 C40.0185146,13.8045815 39.2614313,13.6040844 38.9197854,13.0184717 C38.5781396,12.4338069 38.7813063,11.6849052 39.3725979,11.3474254 C39.9641292,11.0092347 40.7212125,11.2099688 41.0628583,11.7951075 C41.3474833,12.2830786 41.2538062,12.8848069 40.8719104,13.2661306 L43.9491187,17.1274775 L43.9697229,17.1153908 C44.0660354,17.0599341 44.1690562,17.0191711 44.2720771,16.9919168 L43.3472854,10.2269168 C43.0262438,10.217674 42.7174208,10.0496451 42.5454,9.75435029 C42.5283896,9.72472601 42.5125771,9.69462775 42.4984417,9.6635815 L36.15715,11.2962347 C36.2151292,11.7493676 35.9987854,12.2131653 35.5740042,12.4560844 C35.0078688,12.7786335 34.2843271,12.5876162 33.957775,12.0273618 C33.6302646,11.4673445 33.8248063,10.750911 34.3909417,10.4276509" id="Fill-1" fill="#FFFFFF" mask="url(#mask-2)"></path>
                        </g>
                        <g id="Group-3" transform="translate(59.000000, 11.000000)">
                            <mask id="mask-4" fill="white">
                                <use xlink:href="#path-3"></use>
                            </mask>
                            <g id="Clip-2"></g>
                            <path d="M93.8497382,9.42580991 L99.9146597,0.261287387 L96.8387435,0.261287387 L92.5193717,7.01018829 L88.2450262,0.261287387 L85.0811518,0.261287387 L91.1450262,9.49112523 L91.1450262,15.4990892 L93.8497382,15.4990892 L93.8497382,9.42580991 Z M82.7670157,15.4990892 L77.2267016,7.70618829 L82.5481675,0.261287387 L79.4732984,0.261287387 L75.6560209,5.72530541 L71.8612565,0.261287387 L68.6973822,0.261287387 L74.0413613,7.75008018 L68.4795812,15.4990892 L71.5554974,15.4990892 L75.5905759,9.72991802 L79.6041885,15.4990892 L82.7670157,15.4990892 Z M60.908377,9.44723333 L55.6513089,9.44723333 L58.2691099,3.35253063 L60.908377,9.44723333 Z M59.5554974,0.15208018 L57.0696335,0.15208018 L50.3513089,15.4990892 L53.1,15.4990892 L54.6696335,11.8210532 L61.8900524,11.8210532 L63.4382199,15.4990892 L66.273822,15.4990892 L59.5554974,0.15208018 Z M37.108377,15.4990892 L47.817801,15.4990892 L47.817801,13.0609991 L39.7910995,13.0609991 L39.7910995,0.261287387 L37.108377,0.261287387 L37.108377,15.4990892 Z M28.0753927,9.44723333 L22.8183246,9.44723333 L25.4356021,3.35253063 L28.0753927,9.44723333 Z M26.7225131,0.15208018 L24.2356021,0.15208018 L17.5183246,15.4990892 L20.2664921,15.4990892 L21.8366492,11.8210532 L29.0570681,11.8210532 L30.6052356,15.4990892 L33.4408377,15.4990892 L26.7225131,0.15208018 Z M94.4175393,28.7123775 L99.1251309,28.7123775 L99.1251309,27.6422514 L95.5971204,27.6422514 L95.5971204,22.0170351 L94.4175393,22.0170351 L94.4175393,28.7123775 Z M81.1112565,26.0548279 L78.802356,26.0548279 L79.9513089,23.3753324 L81.1112565,26.0548279 Z M80.5170157,21.9692243 L79.4246073,21.9692243 L76.4732984,28.7123775 L77.6793194,28.7123775 L78.3696335,27.0969991 L81.5437173,27.0969991 L82.2232984,28.7123775 L83.4706806,28.7123775 L80.5170157,21.9692243 Z M64.7379581,23.1070171 L66.8657068,23.1070171 L66.8657068,22.0170351 L61.4217277,22.0170351 L61.4217277,23.1070171 L63.5494764,23.1070171 L63.5494764,28.7123775 L64.7379581,28.7123775 L64.7379581,23.1070171 Z M49.1314136,28.7123775 L50.3089005,28.7123775 L50.3089005,22.0170351 L49.1314136,22.0170351 L49.1314136,28.7123775 Z M37.732199,27.785945 L37.732199,24.9734676 L34.8759162,24.9734676 L34.8759162,25.9960441 L36.5908377,25.9960441 L36.5908377,27.2516658 C36.3863874,27.4024135 36.1460733,27.5265126 35.8688482,27.6182153 C35.5903141,27.7117468 35.2910995,27.7553775 34.9709424,27.7553775 C34.6269634,27.7553775 34.3143979,27.6965937 34.0371728,27.5745847 C33.7594241,27.4546658 33.5193717,27.2866748 33.3172775,27.0729631 C33.1162304,26.8595126 32.9633508,26.6042604 32.8528796,26.3121703 C32.7437173,26.0200802 32.6903141,25.7016027 32.6903141,25.3572604 C32.6903141,25.0301613 32.7471204,24.7250081 32.8573298,24.4370982 C32.9696335,24.1515396 33.123822,23.8986387 33.3172775,23.6825757 C33.5128272,23.4646838 33.7434555,23.2946027 34.0073298,23.1702423 C34.2730366,23.0461432 34.5591623,22.982918 34.8662304,22.982918 C35.0780105,22.982918 35.2704188,23.0004225 35.4460733,23.0375216 C35.6206806,23.0722694 35.7837696,23.1179901 35.9298429,23.1791252 C36.0774869,23.2402604 36.2172775,23.3141973 36.3505236,23.4038099 C36.4858639,23.4931613 36.6159686,23.5911342 36.7447644,23.7003414 L37.4929319,22.8128369 C37.3193717,22.6647018 37.1424084,22.5359 36.9612565,22.424864 C36.778534,22.3135667 36.5853403,22.2176838 36.3811518,22.1413955 C36.1759162,22.0651072 35.9539267,22.0060622 35.7149215,21.9645216 C35.4746073,21.9232423 35.2078534,21.9015577 34.9141361,21.9015577 C34.4094241,21.9015577 33.9442408,21.9950892 33.5193717,22.1805847 C33.0931937,22.3658189 32.728534,22.6142784 32.4217277,22.9304045 C32.1157068,23.2465306 31.8777487,23.6151703 31.708377,24.0360622 C31.5390052,24.4566928 31.4536649,24.9037108 31.4536649,25.3745036 C31.4536649,25.8651523 31.536911,26.3231432 31.7028796,26.7437739 C31.8688482,27.1625757 32.1036649,27.5286027 32.408377,27.8384586 C32.7099476,28.1457018 33.0769634,28.3899811 33.5049738,28.5642423 C33.9332461,28.7411162 34.4094241,28.8281162 34.9327225,28.8281162 C35.2267016,28.8281162 35.5073298,28.8019901 35.7759162,28.7473865 C36.0447644,28.6927829 36.2960733,28.6164946 36.528534,28.5229631 C36.7623037,28.4270802 36.9795812,28.3136928 37.1816754,28.1872423 C37.3816754,28.0605306 37.5649215,27.9254586 37.732199,27.785945 Z M18.9808901,28.7123775 L20.160733,28.7123775 L20.160733,22.0170351 L18.9808901,22.0170351 L18.9808901,28.7123775 Z M6.45026178,25.3745036 C6.45026178,25.7057829 6.39581152,26.0111973 6.28324607,26.2881342 C6.17041885,26.5650712 6.01439791,26.804909 5.81335079,27.0052964 C5.61151832,27.2062063 5.36780105,27.3629631 5.08036649,27.4742604 C4.7921466,27.5855577 4.47329843,27.6422514 4.12251309,27.6422514 L2.79973822,27.6422514 L2.79973822,23.0897739 L4.12251309,23.0897739 C4.47329843,23.0897739 4.7921466,23.1464676 5.08036649,23.261945 C5.36780105,23.3753324 5.61151832,23.5344405 5.81335079,23.7392694 C6.01439791,23.9443595 6.17041885,24.1841973 6.28324607,24.4611342 C6.39581152,24.7378099 6.45026178,25.0432243 6.45026178,25.3745036 Z M7.68664921,25.3572604 C7.68664921,24.8841162 7.60026178,24.4436297 7.42905759,24.0360622 C7.2552356,23.6261432 7.01151832,23.272918 6.6947644,22.9740351 C6.37801047,22.6754135 6.0013089,22.4400171 5.56439791,22.2720261 C5.12643979,22.1022063 4.6447644,22.0170351 4.12251309,22.0170351 L1.61910995,22.0170351 L1.61910995,28.7123775 L4.12251309,28.7123775 C4.6447644,28.7123775 5.12643979,28.6274676 5.56439791,28.4552964 C6.0013089,28.2831252 6.37801047,28.0474676 6.6947644,27.7467559 C7.01151832,27.4460441 7.2552356,27.0925577 7.42905759,26.6805486 C7.60026178,26.270891 7.68664921,25.8280532 7.68664921,25.3572604 Z M14.286911,13.3875757 L14.286911,6.98771982 L7.78691099,6.98771982 L7.78691099,9.31764775 L11.691623,9.31764775 L11.691623,12.1690532 C11.2259162,12.5170532 10.6767016,12.7966027 10.0447644,13.006918 C9.41230366,13.2172333 8.73246073,13.3222604 8.0052356,13.3222604 C7.21989529,13.3222604 6.51073298,13.1845757 5.87827225,12.908945 C5.24581152,12.6322694 4.70026178,12.2526568 4.24267016,11.765927 C3.78403141,11.2802423 3.43193717,10.7025937 3.18429319,10.0350712 C2.93743455,9.36754865 2.81361257,8.64202613 2.81361257,7.85824234 C2.81361257,7.11835045 2.94109948,6.42130541 3.19554974,5.7691973 C3.44973822,5.11604414 3.79947644,4.54257568 4.24267016,4.04853063 C4.68560209,3.55553063 5.20968586,3.16677387 5.81335079,2.88408919 C6.41675393,2.6014045 7.06701571,2.45953964 7.76492147,2.45953964 C8.24502618,2.45953964 8.68534031,2.49925135 9.08455497,2.57893604 C9.48455497,2.65966577 9.85209424,2.76782793 10.1863874,2.90551261 C10.5209424,3.04424234 10.8408377,3.21484595 11.1460733,3.41784595 C11.4513089,3.62084595 11.7494764,3.84553063 12.0403141,4.09242252 L13.7418848,2.06764775 C13.3492147,1.73401712 12.945288,1.4400982 12.5311518,1.18589099 C12.1164921,0.932728829 11.6769634,0.718494595 11.2115183,0.543972072 C10.7463351,0.36944955 10.2410995,0.235683784 9.69554974,0.141890991 C9.15052356,0.0470531532 8.54319372,2.61261261e-05 7.87486911,2.61261261e-05 C6.72565445,2.61261261e-05 5.66780105,0.210341441 4.70026178,0.630710811 C3.73350785,1.05212523 2.90104712,1.62167477 2.20314136,2.34014324 C1.5052356,3.05861171 0.963350785,3.89647658 0.577748691,4.85478288 C0.192670157,5.81204414 0,6.82756667 0,7.90213423 C0,9.01954865 0.189267016,10.0575396 0.567015707,11.0148009 C0.945287958,11.9720622 1.47931937,12.803918 2.17041885,13.5069721 C2.86125654,14.2121162 3.69319372,14.7623324 4.66806283,15.1623234 C5.6421466,15.5612694 6.72565445,15.7603505 7.91780105,15.7603505 C8.58717277,15.7603505 9.22670157,15.6992153 9.83769634,15.5756387 C10.4481675,15.4520622 11.0188482,15.2817198 11.55,15.0643505 C12.0803665,14.845936 12.5746073,14.5917288 13.0327225,14.3019901 C13.4908377,14.0112063 13.9091623,13.7070982 14.286911,13.3875757 Z" id="Fill-1" fill="#F7F9FB" mask="url(#mask-4)"></path>
                        </g>
                    </g>
                </g>
            </g>
        </g>
    </g>
</svg>